<?xml version="1.0" standalone="no"?>
<!DOCTYPE svg PUBLIC "-//W3C//DTD SVG 1.1//EN" "http://www.w3.org/Graphics/SVG/1.1/DTD/svg11.dtd" >
<svg xmlns="http://www.w3.org/2000/svg">
<metadata>
Created by FontPrep 20130207 at Sun Oct  4 02:44:02 2015
 By mangor
Copyright (c) 2012 by Fontfabric LLC. All rights reserved.
</metadata>
<defs>
<font id="4e12864fd89514a32faa14844eb4ee75" horiz-adv-x='1024' >
  <font-face 
    font-family="Intro-Bold"
    font-weight="700"
    font-stretch="normal"
    units-per-em="2048"
    panose-1="2 0 0 0 0 0 0 0 0 0"
    ascent="1536"
    descent="-512"
    x-height="987"
    cap-height="1434"
    bbox="-119 -567 2675 2025"
    underline-thickness="102"
    underline-position="-102"
    unicode-range="U+0020-2212"
  />
<missing-glyph horiz-adv-x="448" 
 />
    <glyph glyph-name=".notdef" horiz-adv-x="448" 
 />
    <glyph glyph-name=".null" horiz-adv-x="0" 
 />
    <glyph glyph-name="nonmarkingreturn" horiz-adv-x="681" 
 />
    <glyph glyph-name="space" unicode=" " horiz-adv-x="501" 
 />
    <glyph glyph-name="space" unicode="&#xa0;" horiz-adv-x="501" 
 />
    <glyph glyph-name="exclam" unicode="!" horiz-adv-x="612" 
d="M162 383l-25 1053h334l-18 -1053h-291zM309 -29q-72 0 -121 44t-49 113t48 112t121 43t120 -42t47 -112t-47 -114t-119 -44z" />
    <glyph glyph-name="quotedbl" unicode="&#x22;" horiz-adv-x="860" 
d="M496 1434h245l-34 -451h-211v451zM139 1434h248l-37 -451h-211v451z" />
    <glyph glyph-name="numbersign" unicode="#" horiz-adv-x="1456" 
d="M604 827l-39 -266h307l41 266h-309zM84 367v200h231l39 252h-207v203h238l61 410h254l-59 -410h295l61 410h254l-59 -410h172v-203h-201l-37 -252h172v-200h-202l-52 -367h-264l56 367h-289l-51 -367h-267l56 367h-201z" />
    <glyph glyph-name="dollar" unicode="$" horiz-adv-x="1318" 
d="M406 1021q0 -73 47 -106t135 -53v324q-78 -6 -130 -49t-52 -116zM936 422q0 76 -51 114q-52 38 -146 58v-346q88 6 143 52q54 46 54 122zM82 424h295q4 -78 64 -123t147 -53v362q-485 51 -486 402q0 202 140 316t346 132v139h151v-143q195 -22 325 -130t130 -294h-287
q-4 68 -53 109t-115 45v-342q224 -28 353 -108q151 -94 151 -318q0 -190 -148 -308t-356 -137v-141h-151v139q-214 23 -360 139t-146 314z" />
    <glyph glyph-name="percent" unicode="%" horiz-adv-x="1886" 
d="M301 1099q0 -79 44 -123t95 -44t96 44q44 44 44 123t-44 124t-96 45t-95 -45q-44 -45 -44 -124zM807 1098q0 -100 -41 -179q-70 -135 -249 -181q-151 -36 -299 61q-65 41 -105 120q-41 79 -41 179t41 179q71 137 234 176q163 40 313 -56q65 -41 106 -120t41 -179z
M1309 329q0 -79 44 -124t95 -45t95 45t44 124t-44 123t-95 44t-95 -44t-44 -123zM1817 330q-1 -117 -55 -203t-136 -125t-177 -39t-177 39t-136 125t-55 203q1 118 55 202q105 163 313 162q209 0 313 -163q55 -84 55 -201zM453 0l702 1432h279l-705 -1432h-276z" />
    <glyph glyph-name="ampersand" unicode="&#x26;" horiz-adv-x="1331" 
d="M1085 1085h-251q0 55 -52 89t-129 32q-78 0 -131 -37t-53 -106q0 -156 229 -156v-233h-67q-104 -4 -169 -66t-65 -156q0 -92 66 -156t173 -64q106 0 170 60q64 62 68 171v455h388v-232h-140v-221q0 -227 -129 -357t-373 -130t-384 136q-141 136 -138 326q0 124 60 222
t170 151q-131 82 -142 250q-8 123 59 214q132 179 398 179q193 0 318 -96q124 -97 124 -275z" />
    <glyph glyph-name="quotesingle" unicode="'" horiz-adv-x="505" 
d="M137 1434h252l-35 -447h-217v447z" />
    <glyph glyph-name="parenleft" unicode="(" horiz-adv-x="724" 
d="M305 1379q121 165 289 239l90 -172q-154 -88 -237 -340t-81 -528t85 -528q84 -252 233 -341l-90 -172q-166 74 -286 239q-232 319 -232 806t229 797z" />
    <glyph glyph-name="parenright" unicode=")" horiz-adv-x="724" 
d="M41 1446l90 172q166 -74 286 -239q229 -315 231 -799q2 -485 -229 -803q-120 -166 -288 -240l-90 172q150 86 233 339q84 254 85 530t-81 529q-83 253 -237 339z" />
    <glyph glyph-name="asterisk" unicode="*" horiz-adv-x="897" 
d="M801 1155l-205 -55l149 -168l-176 -129l-120 178l-119 -178l-174 131l149 164l-211 53l62 197l202 -76l-18 203h217l-18 -203l196 78z" />
    <glyph glyph-name="plus" unicode="+" horiz-adv-x="989" 
d="M109 633v235h266v262h237v-262h269v-235h-269v-264h-237v264h-266z" />
    <glyph glyph-name="comma" unicode="," horiz-adv-x="565" 
d="M451 120q0 -36 -15 -65l-84 -260h-168l49 176q-119 39 -118 152q0 72 47 115q46 43 112 43t109 -29q68 -46 68 -132z" />
    <glyph glyph-name="hyphen" unicode="-" horiz-adv-x="964" 
d="M125 559v246h715v-246h-715z" />
    <glyph glyph-name="period" unicode="." horiz-adv-x="569" 
d="M285 -31q-74 0 -122 44t-48 114t48 114t122 44t122 -44t48 -114t-48 -114t-122 -44z" />
    <glyph glyph-name="slash" unicode="/" horiz-adv-x="1101" 
d="M57 2l693 1432h294l-692 -1432h-295z" />
    <glyph glyph-name="zero" unicode="0" horiz-adv-x="1335" 
d="M668 240q98 0 165 50t76 142q6 51 6 115v334q0 61 -6 116q-10 94 -75 144q-66 49 -166 49t-165 -49t-75 -144q-6 -55 -6 -116v-334q0 -63 6 -115q10 -92 76 -142t164 -50zM669 1458q228 0 381 -134t152 -359v-500q0 -227 -152 -361q-153 -133 -381 -133t-382 133
t-154 361v500q0 225 154 359t382 134z" />
    <glyph glyph-name="one" unicode="1" horiz-adv-x="935" 
d="M340 1194h-213v240h506v-1198h248v-236h-783v236h242v958z" />
    <glyph glyph-name="two" unicode="2" horiz-adv-x="1114" 
d="M544 1194q-71 0 -123 -43t-52 -139h-263q0 212 119 328t324 116t319 -117t108 -302q-7 -185 -147 -369q-10 -12 -77 -112t-211 -290h467v-266h-920v66l508 712q103 142 108 232t-42 137t-118 47z" />
    <glyph glyph-name="three" unicode="3" horiz-adv-x="1183" 
d="M571 238q96 0 156 61q59 61 59 166t-63 165t-153 66t-185 -6v43l264 455h-506v244h912v-43l-312 -500q164 -29 249 -148t85 -278q0 -201 -136 -345q-137 -144 -355 -144t-354 121q-136 122 -144 325h268q6 -88 62 -135t153 -47z" />
    <glyph glyph-name="four" unicode="4" horiz-adv-x="1230" 
d="M737 522v273l15 297h-2l-355 -570h342zM995 285v-285h-276v285h-670v133l629 1016h317v-902h133v-247h-133z" />
    <glyph glyph-name="five" unicode="5" horiz-adv-x="1191" 
d="M377 416q15 -174 219 -174q100 0 154 61q53 61 53 170t-59 159q-32 28 -60 47t-83 27q-54 8 -105 17q-51 8 -194 -9t-155 -20v740h879v-254h-627v-246q74 12 156 12q543 -10 543 -483q0 -201 -135 -345t-353 -144t-354 120q-135 121 -147 322h268z" />
    <glyph glyph-name="six" unicode="6" horiz-adv-x="1243" 
d="M631 238q113 0 175 57t62 167t-63 169t-175 59t-175 -60t-63 -169t62 -166q64 -57 177 -57zM632 -23q-240 0 -390 124t-150 360q0 160 92 307l416 676h336l-328 -539q35 18 74 19q219 8 355 -118q137 -126 137 -354t-151 -351q-151 -124 -391 -124z" />
    <glyph glyph-name="seven" unicode="7" horiz-adv-x="1097" 
d="M1085 1434v-43l-610 -1391h-309l508 1167h-604v267h1015z" />
    <glyph glyph-name="eight" unicode="8" horiz-adv-x="1273" 
d="M397 450q1 -96 67 -157q66 -62 174 -62q108 -1 175 63q68 64 68 162t-67 160q-68 64 -176 64t-174 -67t-67 -163zM639 901q80 0 131 46t51 113q0 68 -51 112t-132 44t-132 -44q-51 -46 -51 -114t52 -112q52 -45 132 -45zM638 1456q210 0 331 -112t121 -268t-132 -265
q215 -129 220 -367q4 -194 -142 -330t-397 -136q-250 0 -396 134q-146 136 -147 328q0 117 58 214t163 159q-127 106 -130 261q-3 154 119 268t332 114z" />
    <glyph glyph-name="nine" unicode="9" horiz-adv-x="1241" 
d="M610 1208q-113 0 -176 -57t-63 -166t63 -169t175 -60t175 59q64 59 64 169t-62 167t-176 57zM68 992q0 230 150 353q152 123 392 123t390 -124t151 -359q-2 -164 -98 -315l-414 -670h-334l342 541q-41 -18 -80 -19q-225 -8 -362 116t-137 354z" />
    <glyph glyph-name="colon" unicode=":" horiz-adv-x="589" 
d="M295 606q-74 0 -122 44t-48 114t48 114t122 44t122 -44t48 -114t-48 -114t-122 -44zM295 -31q-74 0 -122 44t-48 114t48 114t122 44t122 -44t48 -114t-48 -114t-122 -44z" />
    <glyph glyph-name="semicolon" unicode=";" horiz-adv-x="591" 
d="M463 125q-1 -31 -25 -99t-71 -227h-170l49 172q-119 39 -119 152q0 72 47 115q46 43 112 43t109 -29q68 -46 68 -127zM296 608q-73 0 -122 43t-49 112t49 113t122 44t120 -43t47 -113t-47 -113t-120 -43z" />
    <glyph glyph-name="less" unicode="&#x3c;" 
d="M88 600v211l879 373v-252l-549 -227l549 -230v-252z" />
    <glyph glyph-name="equal" unicode="=" horiz-adv-x="1124" 
d="M139 387v238h846v-238h-846zM139 776v238h846v-238h-846z" />
    <glyph glyph-name="greater" unicode="&#x3e;" 
d="M1040 811v-211l-878 -377v252l549 230l-549 227v252z" />
    <glyph glyph-name="question" unicode="?" horiz-adv-x="1058" 
d="M521 -29q-73 0 -121 44t-48 114t48 113t122 43t120 -43t46 -114t-47 -114t-120 -43zM653 383h-270q0 111 33 198t73 133q41 46 94 109q52 63 76 119q43 82 4 163q-40 81 -149 81q-74 0 -129 -42t-63 -118h-252q0 207 126 319q126 111 320 115t327 -106q132 -110 132 -316
q0 -128 -113 -260q-47 -55 -95 -111q-114 -133 -114 -284z" />
    <glyph glyph-name="at" unicode="@" horiz-adv-x="1906" 
d="M1157 504l21 229q-76 45 -170 49q-109 -4 -185 -81t-86 -199t36 -197q46 -76 155 -72q196 1 229 271zM1462 164q72 0 125 101t66 237q53 307 -118 494q-171 188 -491 188t-533 -190q-212 -190 -241 -498q-18 -197 43 -350q117 -293 463 -321q164 -13 350 66l-16 -165
q-545 -170 -849 163q-93 103 -137 261t-26 346q33 378 301 620q269 242 659 242t597 -232t170 -624q-25 -246 -162 -396t-311 -149q-90 0 -139 51q-48 51 -42 137l3 23q-48 -88 -132 -138t-184 -55q-214 0 -322 151q-108 150 -85 386t193 373q171 137 419 133q96 0 215 -45
t192 -107l-53 -577q-12 -125 45 -125z" />
    <glyph glyph-name="A" unicode="A" horiz-adv-x="1433" 
d="M717 969l-199 -473h397zM-12 0v41l659 1405h141l656 -1405v-41h-318l-112 238h-596l-111 -238h-319z" />
    <glyph glyph-name="B" unicode="B" horiz-adv-x="1376" 
d="M799 594h-326v-328h340q164 0 172 168q4 84 -63 131q-41 29 -123 29zM754 1169h-281v-325h281q78 0 124 41t48 115t-45 122q-47 47 -127 47zM1227 1008q0 -80 -38 -152t-106 -113q205 -86 205 -319q0 -192 -121 -308t-333 -116h-666v1432h608q201 0 326 -114t125 -310z
" />
    <glyph glyph-name="C" unicode="C" horiz-adv-x="1558" 
d="M86 715q0 341 217 539t516 194q238 0 426 -130t236 -380h-297q-92 233 -365 233q-190 1 -307 -125t-117 -322t117 -328t305 -132q137 0 238 66q100 66 135 192h295q-43 -266 -231 -401t-435 -135q-294 0 -508 185q-101 89 -163 231t-62 313z" />
    <glyph glyph-name="D" unicode="D" horiz-adv-x="1490" 
d="M473 276h223q188 0 294 130t108 312q0 183 -108 310t-294 127h-223v-879zM168 1432h532q326 0 514 -210t190 -502t-185 -506q-188 -214 -519 -214h-532v1432z" />
    <glyph glyph-name="E" unicode="E" horiz-adv-x="1171" 
d="M1044 1434v-269h-569v-291h533v-268h-533v-327h586v-279h-895v1434h878z" />
    <glyph glyph-name="F" unicode="F" horiz-adv-x="1116" 
d="M985 778v-268h-514v-510h-305v1434h878v-269h-573v-387h514z" />
    <glyph glyph-name="G" unicode="G" horiz-adv-x="1576" 
d="M86 717q0 227 105 398t269 254t376 83t394 -118t238 -353h-301q-100 195 -350 195q-195 0 -307 -130t-113 -332q0 -202 115 -328t290 -126t274 60t143 215h-392v258h672q14 -242 -43 -402q-78 -207 -249 -308t-390 -101q-301 0 -516 198t-215 537z" />
    <glyph glyph-name="H" unicode="H" horiz-adv-x="1492" 
d="M1327 0h-307v606h-549v-606h-305v1434h305v-547h549v547h307v-1434z" />
    <glyph glyph-name="I" unicode="I" horiz-adv-x="897" 
d="M602 244h203v-244h-713v244h203v952h-186v238h679v-238h-186v-952z" />
    <glyph glyph-name="J" unicode="J" horiz-adv-x="1290" 
d="M1137 1434v-959q0 -225 -159 -360t-389 -135t-383 134t-153 361v174h285v-168q0 -113 69 -171t181 -58t176 59q66 59 65 170v688h-256v265h564z" />
    <glyph glyph-name="K" unicode="K" horiz-adv-x="1439" 
d="M471 1434v-592q195 0 248 26q51 29 80 98t63 214q92 334 490 252v-209q-88 8 -136 -23t-71 -110q-72 -272 -180 -381l438 -664v-45h-346l-361 590q-55 -14 -225 -15v-575h-305v1434h305z" />
    <glyph glyph-name="L" unicode="L" horiz-adv-x="1103" 
d="M473 1434v-1160h598v-274h-905v1434h307z" />
    <glyph glyph-name="M" unicode="M" horiz-adv-x="1705" 
d="M1540 1438v-1438h-307v776l-361 -450h-38l-361 450v-776h-307v1438h113l575 -682l576 682h110z" />
    <glyph glyph-name="N" unicode="N" horiz-adv-x="1540" 
d="M471 0h-305v1440h96l805 -819v813h307v-1438h-92l-811 823v-819z" />
    <glyph glyph-name="O" unicode="O" horiz-adv-x="1636" 
d="M395 714q0 -220 121 -339t302 -119t304 119t123 339t-123 340t-302 120t-302 -120t-123 -340zM1550 717q0 -328 -204 -535t-520 -207t-528 198t-212 544q0 231 105 403t271 254t334 82t298 -49q284 -107 396 -373q60 -143 60 -317z" />
    <glyph glyph-name="P" unicode="P" horiz-adv-x="1341" 
d="M469 670h311q96 0 157 72q60 72 60 178t-59 177t-158 70h-311v-497zM475 2h-307v1434h612q238 0 374 -154t136 -367t-137 -360t-373 -147h-305v-406z" />
    <glyph glyph-name="Q" unicode="Q" horiz-adv-x="1638" 
d="M395 717q0 -207 124 -329t300 -122t300 122t124 330t-124 330t-300 122t-300 -124q-124 -122 -124 -329zM1569 -14h-279l-67 110q-188 -117 -416 -116q-301 4 -511 206t-210 532q0 332 204 538t529 206q193 0 357 -84t269 -257t105 -419t-129 -428l148 -243v-45z" />
    <glyph glyph-name="R" unicode="R" horiz-adv-x="1415" 
d="M471 727h307q94 0 154 65q59 66 58 158t-58 154t-154 63h-307v-440zM1354 2h-328l-295 473h-256v-473h-307v1434h612q236 0 371 -144t135 -348q0 -137 -68 -250t-188 -172l324 -477v-43z" />
    <glyph glyph-name="S" unicode="S" horiz-adv-x="1327" 
d="M86 424h293q4 -92 89 -139t200 -47q274 0 274 180q0 47 -21 82q-22 35 -49 52q-65 41 -243 54q-522 45 -523 408q0 223 156 337q156 113 381 113t381 -96q80 -49 127 -136t47 -202h-287q-12 82 -86 124t-173 42t-172 -48q-72 -48 -72 -131t70 -119t202 -49
q131 -13 220 -33t174 -66q85 -45 128 -128t43 -204t-49 -211t-134 -139q-165 -95 -392 -99q-238 0 -411 118t-173 337z" />
    <glyph glyph-name="T" unicode="T" horiz-adv-x="1134" 
d="M420 1167h-383v267h1061v-267h-381v-1167h-297v1167z" />
    <glyph glyph-name="U" unicode="U" horiz-adv-x="1447" 
d="M727 -18q-241 0 -407 132t-166 363v957h307v-951q0 -111 77 -171q78 -60 190 -60t188 60t75 171v951h303v-957q0 -231 -164 -363t-403 -132z" />
    <glyph glyph-name="V" unicode="V" horiz-adv-x="1376" 
d="M1364 1434v-45l-610 -1401h-127l-617 1401v45h326l192 -461l160 -461h6l152 459l192 463h326z" />
    <glyph glyph-name="W" unicode="W" horiz-adv-x="1986" 
d="M1956 1434v-45l-494 -1401h-182l-285 774h-6l-276 -774h-189l-495 1401v45h321l146 -439l129 -475h6l299 889h125l309 -889h6l121 477l143 437h322z" />
    <glyph glyph-name="X" unicode="X" horiz-adv-x="1374" 
d="M1305 1434v-45l-433 -631l482 -715v-43h-322l-186 276l-154 269h-10l-158 -277l-178 -268h-326v43l484 715l-434 631v45h333l150 -236l131 -258h8l139 270l142 224h332z" />
    <glyph glyph-name="Y" unicode="Y" horiz-adv-x="1300" 
d="M1296 1434v-45l-491 -816v-573h-307v573l-494 816v45h330l178 -306l135 -274h10l142 285l172 295h325z" />
    <glyph glyph-name="Z" unicode="Z" horiz-adv-x="1239" 
d="M1159 1434v-45l-649 -1115h655v-274h-1120v43l657 1122h-600v269h1057z" />
    <glyph glyph-name="bracketleft" unicode="[" horiz-adv-x="684" 
d="M602 1577v-231h-188v-1481h188v-256h-455v1968h455z" />
    <glyph glyph-name="backslash" unicode="\" horiz-adv-x="1101" 
d="M352 1434l692 -1432h-294l-693 1432h295z" />
    <glyph glyph-name="bracketright" unicode="]" horiz-adv-x="684" 
d="M82 1346v231h455v-1968h-455v256h188v1481h-188z" />
    <glyph glyph-name="asciicircum" unicode="^" horiz-adv-x="1148" 
d="M471 1448h205l379 -625h-250l-234 381l-225 -381h-250z" />
    <glyph glyph-name="underscore" unicode="_" horiz-adv-x="1261" 
d="M123 -270v245h1016v-245h-1016z" />
    <glyph glyph-name="grave" unicode="`" horiz-adv-x="688" 
d="M549 1133h-234l-182 225v24l262 97l154 -320v-26z" />
    <glyph glyph-name="a" unicode="a" horiz-adv-x="1134" 
d="M705 354v52q-84 57 -205 57q-72 -4 -117 -44q-45 -41 -39 -101t45 -88t105 -28t136 40q69 40 75 112zM406 -18q-125 0 -231 85q-105 85 -109 224q-8 174 100 265q109 91 277 91t268 -63v67q0 141 -246 142q-178 0 -285 -60l-37 205q156 74 371 74q471 0 471 -369v-356
q0 -68 9 -93q8 -24 28 -30t55 -4l2 -160q-77 -14 -147 -14t-118 42t-48 124q-41 -86 -138 -128t-222 -42z" />
    <glyph glyph-name="b" unicode="b" horiz-adv-x="1193" 
d="M408 715v-492q102 -27 172 -24q250 4 249 280q0 129 -66 206q-67 77 -163 81t-192 -51zM129 1495h285v-545q115 47 229 47q207 2 340 -142t133 -376q0 -388 -352 -485q-98 -27 -217 -27q-209 2 -418 78v1450z" />
    <glyph glyph-name="c" unicode="c" horiz-adv-x="1155" 
d="M358 496q0 -126 75 -198q75 -73 161 -73q174 0 225 154h273q-29 -189 -169 -293t-338 -106t-355 135q-156 137 -156 382t157 383t353 138t333 -102t170 -285h-272q-51 139 -222 135q-85 -2 -160 -73t-75 -197z" />
    <glyph glyph-name="d" unicode="d" horiz-adv-x="1236" 
d="M782 455v254q-154 91 -288 29t-134 -244q0 -115 54 -190t154 -75t157 66t57 160zM76 494q0 143 60 260q115 224 384 252q125 12 254 -56v547h287v-1234q0 -34 11 -52q21 -33 81 -27l2 -186q-77 -14 -147 -16t-124 38t-55 119v27q-41 -90 -119 -139t-178 -52
q-216 -4 -336 147t-120 372z" />
    <glyph glyph-name="e" unicode="e" horiz-adv-x="1126" 
d="M594 793q-88 -1 -152 -47t-80 -128h435q5 90 -55 132t-148 43zM592 1012q264 0 380 -160t58 -418h-670q14 -205 263 -223q208 -10 366 61l33 -209q-186 -88 -383 -88q-252 -5 -409 139q-156 144 -154 390t152 377q151 131 364 131z" />
    <glyph glyph-name="f" unicode="f" horiz-adv-x="841" 
d="M225 0v782h-182v203h186l2 125q-1 144 53 238q95 167 346 158q110 -3 236 -42l-28 -213q-120 47 -222 27q-52 -10 -82 -54t-30 -120v-119h311v-203h-311v-782h-279z" />
    <glyph glyph-name="g" unicode="g" horiz-adv-x="1187" 
d="M778 258v481q-80 20 -168 21q-240 0 -248 -279q-2 -127 60 -201q116 -140 356 -22zM782 -59v82q-284 -135 -494 2t-210 454q0 266 158 393t403 123q207 0 420 -90v-954q0 -193 -86 -317q-157 -227 -514 -180q-160 22 -312 104l37 221q279 -147 454 -91q62 19 103 84
t41 169z" />
    <glyph glyph-name="h" unicode="h" horiz-adv-x="1224" 
d="M1104 0h-289v571q4 99 -47 155t-137 57q-85 1 -147 -58t-62 -160v-565h-289v1495h289v-614q92 129 294 129t295 -118t93 -321v-571z" />
    <glyph glyph-name="i" unicode="i" horiz-adv-x="557" 
d="M422 975v-975h-287v975h287zM111 1272q0 80 51 123t119 41q69 -2 117 -45t48 -120t-48 -120t-116 -45t-119 42q-52 44 -52 124z" />
    <glyph glyph-name="j" unicode="j" horiz-adv-x="552" 
d="M106 1270q0 80 52 124t118 42q68 -2 117 -45t49 -119t-46 -119t-114 -47t-122 40t-54 124zM135 983h283l-2 -1100q0 -260 -125 -351t-365 -48l8 213q119 -16 160 27t41 163v1096z" />
    <glyph glyph-name="k" unicode="k" horiz-adv-x="1146" 
d="M418 625h69q158 0 222 97q63 97 63 267h270q4 -172 -47 -294t-188 -193l283 -471v-29h-289l-236 410q-37 -12 -82 -13h-65v-397h-285v1495h285v-872z" />
    <glyph glyph-name="l" unicode="l" horiz-adv-x="632" 
d="M125 1499h283v-1124q0 -111 45 -145t151 -15l10 -215q-244 -43 -366 39t-123 336v1124z" />
    <glyph glyph-name="m" unicode="m" horiz-adv-x="1851" 
d="M1729 0h-289v571q4 95 -40 153t-121 56t-128 -58t-53 -153v-569h-283v569q2 97 -44 155t-127 56t-137 -61t-56 -156v-563h-285v686q0 78 -15 104t-79 25v174q113 33 225 20q59 -7 95 -47t36 -110q37 80 126 119q88 39 202 39t184 -43t107 -138q43 85 138 133t204 48
q195 0 271 -118t69 -321v-571z" />
    <glyph glyph-name="n" unicode="n" horiz-adv-x="1257" 
d="M1137 0h-289v571q4 95 -50 153t-138 58t-146 -58t-61 -159v-565h-287v682q0 77 -10 97q-10 21 -30 27t-54 5v178q360 61 360 -133q39 80 128 117t188 37q200 0 294 -121t95 -318v-571z" />
    <glyph glyph-name="o" unicode="o" horiz-adv-x="1193" 
d="M358 498q0 -127 70 -198t167 -72t169 71t72 198q0 127 -70 197t-167 70t-169 -70t-72 -196zM1120 498q0 -246 -154 -382t-367 -136q-212 0 -369 136q-156 136 -156 380t153 381q154 137 367 139q214 2 370 -135t156 -383z" />
    <glyph glyph-name="p" unicode="p" horiz-adv-x="1230" 
d="M866 494q0 114 -56 192t-154 77t-152 -67q-56 -66 -58 -157v-258q106 -55 200 -53t157 78q63 74 63 188zM711 1016q207 0 325 -151t119 -363q0 -143 -61 -261q-62 -119 -160 -181t-224 -74t-255 57v-549h-287v1218q0 65 -22 76q-7 4 -16 10q-10 6 -24 5h-30l-2 190
q117 25 190 8q74 -17 104 -57t31 -108q39 88 125 134t187 46z" />
    <glyph glyph-name="q" unicode="q" horiz-adv-x="1191" 
d="M782 272v492q-54 18 -160 22t-182 -68t-76 -208q0 -137 70 -211t164 -75t184 48zM1063 -516h-287v549q-115 -53 -231 -53q-201 0 -335 146t-134 374q0 270 157 397q158 127 404 125q182 0 426 -86v-1452z" />
    <glyph glyph-name="r" unicode="r" horiz-adv-x="948" 
d="M451 0h-281v696q0 72 -18 102t-80 19v176q78 13 156 17t142 -37t72 -123q29 82 106 125t171 43q123 4 211 -64l-64 -239q-86 57 -184 55t-165 -64t-66 -171v-535z" />
    <glyph glyph-name="s" unicode="s" horiz-adv-x="1046" 
d="M515 1014q189 0 313 -83t116 -233h-270q-2 51 -45 76t-107 25t-109 -28q-44 -28 -44 -69q1 -41 25 -61q24 -19 50 -25t159 -22q134 -16 214 -47q164 -70 160 -250q-2 -113 -69 -187q-123 -136 -376 -137q-448 0 -460 328h286q2 -57 50 -88t112 -29q168 0 170 113
q0 57 -38 72t-103 26q-229 31 -313 72q-144 69 -144 225t117 239t306 83z" />
    <glyph glyph-name="t" unicode="t" horiz-adv-x="921" 
d="M510 1292v-307h321v-215h-321v-383q0 -96 50 -144t124 -43t160 31l26 -217q-270 -75 -447 -5q-91 36 -142 130t-52 242v389l-186 18v197h207l31 307h229z" />
    <glyph glyph-name="u" unicode="u" horiz-adv-x="1239" 
d="M784 987h287v-690q0 -75 15 -99t77 -20l2 -178q-123 -29 -230 -13q-58 9 -94 49t-36 107q-39 -81 -126 -119t-190 -38q-367 0 -366 436v565h289v-565q-4 -100 44 -156t131 -56q83 -1 140 59t57 159v559z" />
    <glyph glyph-name="v" unicode="v" horiz-adv-x="1122" 
d="M16 987h308l116 -268l119 -316h4l121 316l117 268h305v-33l-485 -968h-119l-486 968v33z" />
    <glyph glyph-name="w" unicode="w" horiz-adv-x="1574" 
d="M25 987h305l104 -289l76 -225h4l221 492h109l223 -492h6l170 514h309v-33l-409 -968h-109l-123 241l-123 260l-118 -268l-113 -233h-127l-405 968v33z" />
    <glyph glyph-name="x" unicode="x" horiz-adv-x="1077" 
d="M29 0v33l342 491l-293 432v31h274l88 -129l95 -166h6l92 168l86 127h293v-33l-303 -440l333 -481v-33h-276l-111 160l-110 188h-6l-117 -196l-107 -152h-286z" />
    <glyph glyph-name="y" unicode="y" horiz-adv-x="1144" 
d="M14 987h301l134 -334l129 -364h6l112 362l119 336h291v-33l-418 -1050q-81 -205 -166 -302q-51 -58 -111 -82q-131 -52 -335 23l30 199q123 -49 191 -11t113 165l36 102l-432 956v33z" />
    <glyph glyph-name="z" unicode="z" horiz-adv-x="980" 
d="M903 987v-33l-430 -706h430v-248h-844v33l437 717h-406v237h813z" />
    <glyph glyph-name="braceleft" unicode="{" horiz-adv-x="675" 
d="M590 1599v-204q-70 2 -106 -22t-35 -89v-399q0 -90 -40 -158t-116 -96q156 -53 156 -262v-428q1 -68 37 -88t104 -13v-229q-236 0 -297 42q-78 51 -98 144q-12 55 -13 131l-2 416q0 70 -25 126q-26 56 -87 56v211q113 6 112 172l2 385q0 156 76 237q54 56 200 65
q46 3 132 3z" />
    <glyph glyph-name="bar" unicode="|" horiz-adv-x="567" 
d="M154 1452h260v-1630h-260v1630z" />
    <glyph glyph-name="braceright" unicode="}" horiz-adv-x="675" 
d="M86 1599q266 0 337 -73t71 -232l2 -385q0 -166 112 -172v-211q-61 0 -87 -56t-25 -126l-2 -416q0 -156 -54 -221q-30 -35 -58 -54q-63 -42 -296 -42v229q68 -8 104 12t37 89v428q0 213 148 262q-147 55 -148 254v399q1 66 -35 90t-106 21v204z" />
    <glyph glyph-name="asciitilde" unicode="~" horiz-adv-x="1273" 
d="M264 541l-172 92q55 189 219 249t336 -38q141 -74 197 -78q104 -12 155 106l189 -90q-145 -387 -537 -213q-10 4 -59 26q-50 22 -66 28t-57 18t-61 8t-50 -12q-56 -15 -94 -96z" />
    <glyph glyph-name="exclamdown" unicode="&#xa1;" horiz-adv-x="575" 
d="M432 573l25 -1036h-334l18 1036h291zM119 844q0 70 47 114t119 43q72 0 121 -44q49 -45 49 -113t-48 -111t-121 -43t-120 42t-47 112z" />
    <glyph glyph-name="cent" unicode="&#xa2;" horiz-adv-x="1224" 
d="M500 279l164 483q-104 4 -186 -67t-82 -203t104 -213zM113 503q0 181 99 310q100 129 244 175t294 18l53 151h121l-64 -186q221 -98 264 -344l-266 -2q-27 63 -82 96l-170 -492q82 -12 155 28t101 126l271 -2q-23 -152 -120 -252t-225 -133t-264 -8l-51 -152h-129l64 187
q-133 57 -214 178t-81 302z" />
    <glyph glyph-name="sterling" unicode="&#xa3;" horiz-adv-x="1374" 
d="M98 623v192h144q-76 460 308 594q105 37 232 39q215 2 430 -96l-92 -219q-176 79 -323 71t-221 -102t-39 -287h444v-192h-418q16 -135 -4 -228q-27 -94 -70 -149q83 46 238 16t211 -30q56 -1 86 38t23 148h237q29 -201 -42 -318t-257 -116q-63 0 -305 49q-74 14 -154 9
t-120 -44h-295v27q96 88 136 178q70 158 21 420h-170z" />
    <glyph glyph-name="currency" unicode="&#xa4;" horiz-adv-x="1163" 
d="M424 690q0 -82 46 -125t112 -43t112 43t45 125q0 82 -46 126q-45 44 -111 44t-112 -44t-46 -126zM580 1069q106 0 196 -47l96 96l146 -141l-100 -98q47 -79 47 -187t-47 -192l100 -99l-146 -139l-96 96q-88 -47 -194 -47t-195 47l-98 -96l-144 139l99 101q-43 78 -43 188
t43 189l-99 98l144 141l98 -96q87 47 193 47z" />
    <glyph glyph-name="yen" unicode="&#xa5;" horiz-adv-x="1275" 
d="M786 0h-299v244h-272v168h272v102h-272v168h215l-360 709v43h327l244 -570l240 570h325v-43l-362 -709h217v-168h-275v-102h275v-168h-275v-244z" />
    <glyph glyph-name="brokenbar" unicode="&#xa6;" horiz-adv-x="571" 
d="M156 625h260v-668h-260v668zM156 1452h260v-659h-260v659z" />
    <glyph glyph-name="section" unicode="&#xa7;" horiz-adv-x="1325" 
d="M845 -41q81 39 81 101t-22 84t-34 33q-14 11 -42 19t-42 14q-29 10 -105 17q-75 6 -83 6q-465 33 -473 342q0 165 162 261q-160 84 -160 258t153 276q154 100 364 100t368 -98t157 -278h-276q-4 76 -74 110t-165 35q-95 0 -167 -35q-71 -35 -71 -111t73 -102
q46 -17 185 -35q316 -25 437 -120q46 -36 77 -100t31 -148q-2 -156 -142 -256q141 -86 142 -262q0 -121 -84 -209q-154 -161 -467 -170q-320 0 -479 168q-85 90 -85 217l281 2q4 -78 89 -120q86 -42 188 -40t183 41zM834 418q117 55 116 160q0 147 -325 170q-55 2 -105 12
q-125 -55 -123 -156q5 -76 67 -115t207 -53t163 -18z" />
    <glyph glyph-name="dieresis" unicode="&#xa8;" horiz-adv-x="1220" 
d="M314 1163q-70 0 -116 41t-46 107q0 67 47 107t115 40t116 -41q47 -41 47 -107t-47 -106q-47 -41 -116 -41zM858 1163q-70 0 -116 41t-46 107q0 67 46 107t116 40t116 -41t46 -107t-46 -106q-46 -41 -116 -41z" />
    <glyph glyph-name="copyright" unicode="&#xa9;" horiz-adv-x="1611" 
d="M309 711q0 -168 74 -292q139 -233 422 -234t424 234q74 124 74 292q0 167 -74 291t-185 180q-110 56 -238 55q-285 0 -423 -235q-74 -123 -74 -291zM666 713q0 -91 56 -141t127 -34t107 99l168 -2q-14 -87 -67 -151q-103 -124 -275 -110t-254 158q-43 76 -43 176t43 177
q80 141 251 159q171 17 274 -102q53 -61 67 -149l-166 -2q-26 72 -96 89t-131 -30t-61 -137zM1509 711q0 -171 -60 -309q-59 -138 -159 -223t-226 -131q-261 -95 -525 1t-376 351q-61 138 -61 310t61 309q110 254 385 354q126 46 258 46t258 -46q272 -99 385 -354
q60 -138 60 -308z" />
    <glyph glyph-name="ordfeminine" unicode="&#xaa;" horiz-adv-x="1026" 
d="M438 864q57 0 106 28q48 28 54 79v39q-63 39 -147 39q-53 -4 -84 -33t-27 -70q2 -82 98 -82zM178 395v180h682v-180h-682zM598 1174q0 114 -198 112q-94 0 -175 -41l-28 146q117 55 267 55t252 -66q101 -66 101 -213v-260q0 -29 3 -43q7 -31 63 -33v-116
q-237 -49 -244 86v20q-61 -115 -246 -114q-111 0 -183 53t-85 171q-12 119 76 189t215 70q111 -4 182 -47v31z" />
    <glyph glyph-name="guillemotleft" unicode="&#xab;" horiz-adv-x="1079" 
d="M967 1143l-201 -434l201 -428l-162 -68l-309 496l309 499zM561 1143l-201 -434l201 -428l-162 -68l-309 496l309 499z" />
    <glyph glyph-name="logicalnot" unicode="&#xac;" horiz-adv-x="1179" 
d="M131 565v246h899v-559h-229v313h-670z" />
    <glyph glyph-name="registered" unicode="&#xae;" horiz-adv-x="1611" 
d="M311 717q0 -127 43 -231t113 -166q70 -64 159 -98t181 -34t181 34q193 74 272 264q43 102 43 230t-43 231t-113 167t-159 97q-89 34 -181 34t-181 -34q-193 -74 -272 -264q-43 -103 -43 -230zM731 905v-164h109q44 0 70 24q26 23 26 59t-25 59t-71 22h-109zM1122 387
h-174l-133 217h-84v-217h-170v666h295q110 1 180 -61t70 -171q0 -66 -33 -120t-92 -72l141 -211v-31zM1509 717q0 -170 -60 -308q-59 -137 -159 -223t-226 -132q-261 -95 -525 1t-376 352q-61 138 -61 309t61 309q110 254 385 354q126 46 258 46t258 -46q272 -99 385 -354
q60 -138 60 -308z" />
    <glyph glyph-name="macron" unicode="&#xaf;" horiz-adv-x="1021" 
d="M178 1210v220h656v-220h-656z" />
    <glyph glyph-name="degree" unicode="&#xb0;" horiz-adv-x="915" 
d="M299 1114q0 -74 49 -117q50 -43 108 -43t107 43t49 117t-49 117t-107 43t-108 -43t-49 -117zM825 1114q0 -94 -41 -168q-71 -128 -236 -165t-311 53q-65 38 -106 112t-41 168t41 168q72 130 237 166t311 -53q65 -39 105 -113t41 -168z" />
    <glyph glyph-name="plusminus" unicode="&#xb1;" horiz-adv-x="1052" 
d="M139 33v231h774v-231h-774zM141 631v233h271v266h227v-266h274v-233h-274v-262h-227v262h-271z" />
    <glyph glyph-name="twosuperior" unicode="&#xb2;" horiz-adv-x="854" 
d="M723 846v-191h-602v47l338 445q67 79 49 145t-100 66q-43 0 -69 -26t-28 -68h-180q-2 134 72 208q73 74 195 74t195 -45t101 -113t16 -149q-11 -80 -63 -147l-196 -246h272z" />
    <glyph glyph-name="threesuperior" unicode="&#xb3;" horiz-adv-x="821" 
d="M406 827q52 0 84 33t32 88t-35 86t-85 30t-107 -3v29l149 266h-315v176h586v-31l-172 -297q190 -43 190 -262q0 -121 -87 -212t-229 -91t-232 77q-89 77 -93 206h193q2 -43 36 -69t85 -26z" />
    <glyph glyph-name="acute" unicode="&#xb4;" horiz-adv-x="620" 
d="M102 1133v26l154 320l262 -97v-24l-182 -225h-234z" />
    <glyph glyph-name="mu" unicode="&#xb5;" horiz-adv-x="1198" 
d="M1090 0h-275v139q-17 -69 -71 -109t-130 -40q-135 0 -196 108v-610h-273v1501h273v-581q2 -96 53 -148t136 -54q85 -1 147 58q61 59 61 158v567h275v-989z" />
    <glyph glyph-name="mu" unicode="&#x3bc;" horiz-adv-x="1198" 
d="M1090 0h-275v139q-17 -69 -71 -109t-130 -40q-135 0 -196 108v-610h-273v1501h273v-581q2 -96 53 -148t136 -54q85 -1 147 58q61 59 61 158v567h275v-989z" />
    <glyph glyph-name="paragraph" unicode="&#xb6;" horiz-adv-x="1587" 
d="M1409 -442h-285v1613h-297v-1613h-276v807q-115 2 -208 50q-175 90 -244 295q-32 95 -32 194q-2 211 122 364q59 74 161 118t228 46h831v-1874z" />
    <glyph glyph-name="periodcentered" unicode="&#xb7;" horiz-adv-x="569" 
d="M285 578q-74 0 -122 43t-48 115t48 114q48 43 122 43t122 -43t48 -115q0 -73 -48 -115t-122 -42z" />
    <glyph glyph-name="cedilla" unicode="&#xb8;" horiz-adv-x="802" 
d="M272 -160l52 189h211l-31 -125q96 -12 133 -87t8 -159t-118 -120t-188 -24t-175 62l16 158q49 -39 134 -43t108 45q14 49 -39 77q-54 27 -111 27z" />
    <glyph glyph-name="onesuperior" unicode="&#xb9;" horiz-adv-x="733" 
d="M119 655v174h149v531h-131v172h346v-703h152v-174h-516z" />
    <glyph glyph-name="ordmasculine" unicode="&#xba;" horiz-adv-x="1105" 
d="M131 328v225h850v-225h-850zM550 1292q-72 0 -132 -53t-60 -146t60 -147t132 -53q73 0 132 53q59 52 59 146t-59 147t-132 53zM979 1092q1 -128 -63 -222q-120 -178 -367 -178q-246 0 -367 178q-63 94 -63 222t63 220q120 177 366 177q247 0 367 -177q64 -93 64 -220z
" />
    <glyph glyph-name="guillemotright" unicode="&#xbb;" horiz-adv-x="1079" 
d="M313 709l-200 434l161 65l310 -499l-310 -496l-161 68zM719 709l-201 434l162 65l309 -499l-309 -496l-162 68z" />
    <glyph glyph-name="onequarter" unicode="&#xbc;" horiz-adv-x="1966" 
d="M94 580v170h150v528h-129v170h342v-698h149v-170h-512zM514 2l692 1432h254l-692 -1432h-254zM1808 164v-164h-202v164h-416v96l385 617h233v-533h82v-180h-82zM1620 336v143q4 25 7 91t5 89h-2l-194 -323h184z" />
    <glyph glyph-name="onehalf" unicode="&#xbd;" horiz-adv-x="1994" 
d="M1909 190v-190h-602v47l338 445q67 80 49 146t-101 64q-43 0 -69 -26t-27 -68h-180q-2 133 72 208t195 75q120 0 194 -45q143 -88 117 -262q-11 -80 -62 -148l-197 -246h273zM94 571v172h150v533h-129v172h344v-705h151v-172h-516zM518 2l692 1432h254l-692 -1432h-254z
" />
    <glyph glyph-name="threequarters" unicode="&#xbe;" horiz-adv-x="2009" 
d="M389 739q51 0 84 33t33 88t-35 86t-85 30t-107 -3v28l149 267h-315v176h585v-31l-172 -297q190 -43 191 -262q0 -121 -87 -212q-88 -91 -230 -91t-231 77t-93 206h192q2 -43 36 -69t85 -26zM557 2l692 1432h254l-692 -1432h-254zM1851 164v-164h-202v164h-416v96l385 617
h233v-533h82v-180h-82zM1663 336v143q4 25 6 76t6 76h-2l-194 -295h184z" />
    <glyph glyph-name="questiondown" unicode="&#xbf;" horiz-adv-x="1038" 
d="M358 862q0 70 47 113t120 43t121 -44t48 -114t-48 -112t-122 -43q-74 0 -120 43q-46 44 -46 114zM393 606h271q0 -112 -33 -198t-74 -132q-138 -156 -170 -229q-43 -82 -3 -163t148 -81q74 0 130 42q55 42 63 118h252q0 -207 -126 -319t-321 -115q-194 -3 -326 107
t-132 315q0 131 113 260q47 55 95 111q112 134 113 284z" />
    <glyph glyph-name="Agrave" unicode="&#xc0;" horiz-adv-x="1433" 
d="M825 1561h-233l-182 225v24l262 97l153 -320v-26zM717 969l-199 -473h397zM-12 0v41l659 1405h141l656 -1405v-41h-318l-112 238h-596l-111 -238h-319z" />
    <glyph glyph-name="Aacute" unicode="&#xc1;" horiz-adv-x="1433" 
d="M596 1565v26l154 320l262 -96v-25l-183 -225h-233zM717 969l-199 -473h397zM-12 0v41l659 1405h141l656 -1405v-41h-318l-112 238h-596l-111 -238h-319z" />
    <glyph glyph-name="Acircumflex" unicode="&#xc2;" horiz-adv-x="1433" 
d="M1155 1522h-272l-162 159l-160 -159h-276v28l293 303h286l291 -305v-26zM717 969l-199 -473h397zM-12 0v41l659 1405h141l656 -1405v-41h-318l-112 238h-596l-111 -238h-319z" />
    <glyph glyph-name="Atilde" unicode="&#xc3;" horiz-adv-x="1433" 
d="M487 1542l-153 74q127 317 405 176q166 -92 213 27l150 -70q-44 -141 -150 -195t-235 9q-55 29 -87 41t-75 2t-68 -64zM717 969l-199 -473h397zM-12 0v41l659 1405h141l656 -1405v-41h-318l-112 238h-596l-111 -238h-319z" />
    <glyph glyph-name="Adieresis" unicode="&#xc4;" horiz-adv-x="1433" 
d="M608 1665q0 -67 -47 -107t-116 -40t-115 41t-47 107q0 66 47 106q48 40 116 40t115 -40t47 -107zM989 1518q-70 0 -116 41t-46 107t46 106t116 40t116 -40t46 -107t-46 -107t-116 -40zM717 969l-199 -473h397zM-12 0v41l659 1405h141l656 -1405v-41h-318l-112 238h-596
l-111 -238h-319z" />
    <glyph glyph-name="Aring" unicode="&#xc5;" horiz-adv-x="1439" 
d="M-8 0v41l643 1370q-86 23 -140 84q-55 61 -55 145q-1 155 110 222q163 99 330 0q109 -66 109 -219q0 -83 -50 -143t-132 -85l641 -1374v-41h-318l-112 238h-596l-111 -238h-319zM721 944l-199 -448h398zM606 1654q0 -62 54 -88t109 0q54 26 54 88t-54 88q-55 26 -109 0
t-54 -88z" />
    <glyph glyph-name="AE" unicode="&#xc6;" horiz-adv-x="1687" 
d="M807 1167l-272 -571h264l12 571h-4zM-10 0v45l667 1385h902v-263h-498v-297h465v-254h-465v-354h520v-262h-782v346h-359l-155 -346h-295z" />
    <glyph glyph-name="Ccedilla" unicode="&#xc7;" horiz-adv-x="1560" 
d="M88 730q0 326 217 524t516 194q238 0 426 -130t236 -380h-297q-92 233 -365 233q-190 1 -307 -125t-117 -322t117 -328t305 -132q137 0 238 66q100 66 135 192h295q-39 -229 -187 -362t-354 -164l-26 -109q98 -11 135 -77t13 -144t-82 -116q-107 -70 -273 -31
q-74 16 -131 51l16 158q45 -37 127 -38t102 48q14 51 -32 74q-47 23 -105 22l41 158q-272 27 -458 219q-185 193 -185 519z" />
    <glyph glyph-name="Egrave" unicode="&#xc8;" horiz-adv-x="1171" 
d="M756 1561h-234l-182 225v24l262 97l154 -320v-26zM1044 1434v-269h-569v-291h533v-268h-533v-327h586v-279h-895v1434h878z" />
    <glyph glyph-name="Eacute" unicode="&#xc9;" horiz-adv-x="1171" 
d="M477 1573v26l154 320l262 -96v-25l-182 -225h-234zM1044 1434v-269h-569v-291h533v-268h-533v-327h586v-279h-895v1434h878z" />
    <glyph glyph-name="Ecircumflex" unicode="&#xca;" horiz-adv-x="1171" 
d="M1034 1563h-260l-156 155l-151 -155h-264v26l278 299h275l278 -301v-24zM1044 1434v-269h-569v-291h533v-268h-533v-327h586v-279h-895v1434h878z" />
    <glyph glyph-name="Edieresis" unicode="&#xcb;" horiz-adv-x="1171" 
d="M498 1706q0 -66 -47 -106t-116 -41q-69 1 -116 41t-47 106t47 106t116 41q69 0 116 -41q47 -40 47 -106zM879 1559q-70 1 -116 41t-46 106t46 106t116 41q69 0 115 -41q46 -40 46 -106t-46 -106t-115 -41zM1044 1434v-269h-569v-291h533v-268h-533v-327h586v-279h-895
v1434h878z" />
    <glyph glyph-name="Igrave" unicode="&#xcc;" horiz-adv-x="897" 
d="M565 1571h-233l-182 225v25l262 96l153 -320v-26zM602 244h203v-244h-713v244h203v952h-186v238h679v-238h-186v-952z" />
    <glyph glyph-name="Iacute" unicode="&#xcd;" horiz-adv-x="897" 
d="M307 1567v26l154 320l262 -96v-25l-182 -225h-234zM602 244h203v-244h-713v244h203v952h-186v238h679v-238h-186v-952z" />
    <glyph glyph-name="Icircumflex" unicode="&#xce;" horiz-adv-x="897" 
d="M874 1573h-262l-153 156l-154 -156h-264v29l281 294h274l278 -297v-26zM602 244h203v-244h-713v244h203v952h-186v238h679v-238h-186v-952z" />
    <glyph glyph-name="Idieresis" unicode="&#xcf;" horiz-adv-x="897" 
d="M350 1712q0 -66 -47 -106t-116 -41q-69 0 -115 41q-46 40 -47 106q0 66 47 107q48 41 116 41t115 -41t47 -107zM731 1565q-70 0 -116 41q-46 40 -46 106t46 107t116 41t116 -41t46 -107t-46 -106t-116 -41zM602 244h203v-244h-713v244h203v952h-186v238h679v-238h-186
v-952z" />
    <glyph glyph-name="Eth" unicode="&#xd0;" horiz-adv-x="1509" 
d="M492 276h223q189 0 295 130t106 312q0 183 -107 310q-108 127 -294 127h-223v-330h229v-239h-229v-310zM31 586v239h155v607h533q326 0 514 -210t190 -502t-186 -506t-518 -214h-533v586h-155z" />
    <glyph glyph-name="Ntilde" unicode="&#xd1;" horiz-adv-x="1540" 
d="M479 1536l-153 74q127 317 405 176q166 -92 213 26l150 -69q-44 -141 -150 -195t-235 8q-55 29 -87 41t-75 2t-68 -63zM471 0h-305v1440h96l805 -819v813h307v-1438h-92l-811 823v-819z" />
    <glyph glyph-name="Ograve" unicode="&#xd2;" horiz-adv-x="1636" 
d="M969 1587h-254l-199 217v25l285 94l168 -311v-25zM395 714q0 -220 121 -339t302 -119t304 119t123 339t-123 340t-302 120t-302 -120t-123 -340zM1550 717q0 -328 -204 -535t-520 -207t-528 198t-212 544q0 231 105 403t271 254t334 82t298 -49q284 -107 396 -373
q60 -143 60 -317z" />
    <glyph glyph-name="Oacute" unicode="&#xd3;" horiz-adv-x="1636" 
d="M666 1604v26l168 316l284 -95v-24l-196 -223h-256zM395 714q0 -220 121 -339t302 -119t304 119t123 339t-123 340t-302 120t-302 -120t-123 -340zM1550 717q0 -328 -204 -535t-520 -207t-528 198t-212 544q0 231 105 403t271 254t334 82t298 -49q284 -107 396 -373
q60 -143 60 -317z" />
    <glyph glyph-name="Ocircumflex" unicode="&#xd4;" horiz-adv-x="1636" 
d="M1241 1563h-272l-162 159l-160 -159h-276v28l293 303h286l291 -305v-26zM395 714q0 -220 121 -339t302 -119t304 119t123 339t-123 340t-302 120t-302 -120t-123 -340zM1550 717q0 -328 -204 -535t-520 -207t-528 198t-212 544q0 231 105 403t271 254t334 82t298 -49
q284 -107 396 -373q60 -143 60 -317z" />
    <glyph glyph-name="Otilde" unicode="&#xd5;" horiz-adv-x="1636" 
d="M588 1581l-154 74q127 317 406 176q166 -92 213 27l149 -70q-43 -142 -149 -196t-236 10q-55 28 -87 40t-74 2t-68 -63zM395 714q0 -220 121 -339t302 -119t304 119t123 339t-123 340t-302 120t-302 -120t-123 -340zM1550 717q0 -328 -204 -535t-520 -207t-528 198
t-212 544q0 231 105 403t271 254t334 82t298 -49q284 -107 396 -373q60 -143 60 -317z" />
    <glyph glyph-name="Odieresis" unicode="&#xd6;" horiz-adv-x="1636" 
d="M727 1716q0 -66 -47 -106t-116 -41q-70 0 -116 41q-46 40 -46 106t46 107q48 41 116 41t116 -41q47 -41 47 -107zM1108 1569q-70 0 -116 41q-46 40 -46 106t46 107t116 41t116 -41t46 -107t-46 -106t-116 -41zM395 714q0 -220 121 -339t302 -119t304 119t123 339
t-123 340t-302 120t-302 -120t-123 -340zM1550 717q0 -328 -204 -535t-520 -207t-528 198t-212 544q0 231 105 403t271 254t334 82t298 -49q284 -107 396 -373q60 -143 60 -317z" />
    <glyph glyph-name="multiply" unicode="&#xd7;" horiz-adv-x="976" 
d="M115 911l172 174l202 -200l201 196l170 -170l-198 -200l200 -201l-174 -172l-199 199l-198 -197l-174 172l198 199z" />
    <glyph glyph-name="Oslash" unicode="&#xd8;" horiz-adv-x="1630" 
d="M393 724q0 -199 115 -314l436 733q-63 23 -127 22q-176 0 -300 -121t-124 -320zM1239 704q0 192 -104 304l-428 -721q49 -20 112 -21q174 0 297 123t123 315zM1544 717q0 -231 -105 -405t-269 -255q-164 -82 -357 -82q-133 0 -250 45l-86 -143h-143q-143 -2 -144 0v31
l144 239q-248 207 -248 570q0 231 105 403t269 254t334 82q168 0 293 -49l82 141h289v-28l-147 -246q233 -207 233 -557z" />
    <glyph glyph-name="Ugrave" unicode="&#xd9;" horiz-adv-x="1447" 
d="M864 1567h-233l-182 225v25l262 96l153 -320v-26zM727 -18q-241 0 -407 132t-166 363v957h307v-951q0 -111 77 -171q78 -60 190 -60t188 60t75 171v951h303v-957q0 -231 -164 -363t-403 -132z" />
    <glyph glyph-name="Uacute" unicode="&#xda;" horiz-adv-x="1447" 
d="M584 1565v26l153 320l262 -96v-25l-182 -225h-233zM727 -18q-241 0 -407 132t-166 363v957h307v-951q0 -111 77 -171q78 -60 190 -60t188 60t75 171v951h303v-957q0 -231 -164 -363t-403 -132z" />
    <glyph glyph-name="Ucircumflex" unicode="&#xdb;" horiz-adv-x="1447" 
d="M1163 1583h-272l-162 160l-160 -160h-276v29l293 303h286l291 -305v-27zM727 -18q-241 0 -407 132t-166 363v957h307v-951q0 -111 77 -171q78 -60 190 -60t188 60t75 171v951h303v-957q0 -231 -164 -363t-403 -132z" />
    <glyph glyph-name="Udieresis" unicode="&#xdc;" horiz-adv-x="1447" 
d="M445 1554q-69 0 -115 41t-47 107q0 66 47 106q48 40 116 41q68 0 115 -41q47 -40 47 -106t-47 -107t-116 -41zM989 1554q-70 0 -116 41t-46 107t46 106t116 41q70 0 116 -41q46 -40 46 -106t-46 -107t-116 -41zM727 -18q-241 0 -407 132t-166 363v957h307v-951
q0 -111 77 -171q78 -60 190 -60t188 60t75 171v951h303v-957q0 -231 -164 -363t-403 -132z" />
    <glyph glyph-name="Yacute" unicode="&#xdd;" horiz-adv-x="1300" 
d="M514 1581v27l154 319l262 -96v-25l-182 -225h-234zM1296 1434v-45l-491 -816v-573h-307v573l-494 816v45h330l178 -306l135 -274h10l142 285l172 295h325z" />
    <glyph glyph-name="Thorn" unicode="&#xde;" horiz-adv-x="1355" 
d="M166 0v1434h307v-187h307q238 1 374 -153t134 -369t-137 -365t-371 -149h-307v-211h-307zM469 473h311q94 0 155 77q60 77 60 181t-58 179t-157 75h-311v-512z" />
    <glyph glyph-name="germandbls" unicode="&#xdf;" horiz-adv-x="1255" 
d="M418 0h-285v1012q0 614 1000 348v-51l-240 -465q147 -24 216 -132t69 -253q0 -277 -171 -401t-432 -40v226q137 -39 226 29q88 69 88 191t-92 172t-228 32v53l217 459q-141 57 -254 7t-112 -194v-23l-2 -227v-743z" />
    <glyph glyph-name="agrave" unicode="&#xe0;" 
d="M686 1167h-215l-166 207v23l240 88l141 -293v-25zM705 354v52q-84 57 -205 57q-72 -4 -117 -44q-45 -41 -39 -101t45 -88t105 -28t136 40q69 40 75 112zM406 -18q-125 0 -231 85q-105 85 -109 224q-8 174 100 265q109 91 277 91t268 -63v67q0 141 -246 142
q-178 0 -285 -60l-37 205q156 74 371 74q471 0 471 -369v-356q0 -68 9 -93q8 -24 28 -30t55 -4l2 -160q-77 -14 -147 -14t-118 42t-48 124q-41 -86 -138 -128t-222 -42z" />
    <glyph glyph-name="aacute" unicode="&#xe1;" 
d="M418 1157v27l145 299l246 -90v-23l-172 -213h-219zM705 354v52q-84 57 -205 57q-72 -4 -117 -44q-45 -41 -39 -101t45 -88t105 -28t136 40q69 40 75 112zM406 -18q-125 0 -231 85q-105 85 -109 224q-8 174 100 265q109 91 277 91t268 -63v67q0 141 -246 142
q-178 0 -285 -60l-37 205q156 74 371 74q471 0 471 -369v-356q0 -68 9 -93q8 -24 28 -30t55 -4l2 -160q-77 -14 -147 -14t-118 42t-48 124q-41 -86 -138 -128t-222 -42z" />
    <glyph glyph-name="acircumflex" unicode="&#xe2;" 
d="M903 1157h-233l-138 148l-137 -148h-237v27l252 280h245l248 -282v-25zM705 354v52q-84 57 -205 57q-72 -4 -117 -44q-45 -41 -39 -101t45 -88t105 -28t136 40q69 40 75 112zM406 -18q-125 0 -231 85q-105 85 -109 224q-8 174 100 265q109 91 277 91t268 -63v67
q0 141 -246 142q-178 0 -285 -60l-37 205q156 74 371 74q471 0 471 -369v-356q0 -68 9 -93q8 -24 28 -30t55 -4l2 -160q-77 -14 -147 -14t-118 42t-48 124q-41 -86 -138 -128t-222 -42z" />
    <glyph glyph-name="atilde" unicode="&#xe3;" 
d="M328 1194l-144 68q117 295 377 163q123 -54 163 -25q22 15 36 52l139 -66q-37 -131 -138 -182t-220 8q-47 27 -80 39t-71 1t-62 -58zM705 354v52q-84 57 -205 57q-72 -4 -117 -44q-45 -41 -39 -101t45 -88t105 -28t136 40q69 40 75 112zM406 -18q-125 0 -231 85
q-105 85 -109 224q-8 174 100 265q109 91 277 91t268 -63v67q0 141 -246 142q-178 0 -285 -60l-37 205q156 74 371 74q471 0 471 -369v-356q0 -68 9 -93q8 -24 28 -30t55 -4l2 -160q-77 -14 -147 -14t-118 42t-48 124q-41 -86 -138 -128t-222 -42z" />
    <glyph glyph-name="adieresis" unicode="&#xe4;" 
d="M705 354v52q-84 57 -205 57q-72 -4 -117 -44q-45 -41 -39 -101t45 -88t105 -28t136 40q69 40 75 112zM406 -18q-125 0 -231 85q-105 85 -109 224q-8 174 100 265q109 91 277 91t268 -63v67q0 141 -246 142q-178 0 -285 -60l-37 205q156 74 371 74q471 0 471 -369v-356
q0 -68 9 -93q8 -24 28 -30t55 -4l2 -160q-77 -14 -147 -14t-118 42t-48 124q-41 -86 -138 -128t-222 -42zM304 1163q-69 0 -116 41t-47 107q0 67 47 107t116 40t116 -41t47 -107t-47 -106q-47 -41 -116 -41zM776 1163q-70 0 -116 41t-46 107q0 67 46 107t116 40t116 -41
t46 -107t-46 -106q-46 -41 -116 -41z" />
    <glyph glyph-name="aring" unicode="&#xe5;" 
d="M657 1330q0 52 -50 72t-100 0t-50 -72t50 -74t100 0t50 74zM809 1319q0 -91 -79 -149t-174 -58t-174 57t-79 149t52 148q52 55 127 68q184 28 275 -68q52 -56 52 -147zM705 354v52q-84 57 -205 57q-72 -4 -117 -44q-45 -41 -39 -101t45 -88t105 -28t136 40q69 40 75 112z
M406 -18q-125 0 -231 85q-105 85 -109 224q-8 174 100 265q109 91 277 91t268 -63v67q0 141 -246 142q-178 0 -285 -60l-37 205q156 74 371 74q471 0 471 -369v-356q0 -68 9 -93q8 -24 28 -30t55 -4l2 -160q-77 -14 -147 -14t-118 42t-48 124q-41 -86 -138 -128t-222 -42z
" />
    <glyph glyph-name="ae" unicode="&#xe6;" horiz-adv-x="1650" 
d="M1313 621q4 77 -44 121t-124 46t-132 -43t-73 -124h373zM416 -20q-141 0 -245 83q-103 84 -107 229q-4 146 75 234q111 123 330 115q143 -10 229 -63v55q0 84 -77 122q-78 38 -200 38t-245 -64l-35 201q150 78 361 78q276 0 334 -181q41 85 130 133t193 48
q248 0 349 -167t44 -409h-618q12 -233 244 -237q82 -4 176 15t157 48l35 -197q-199 -86 -370 -86q-256 0 -369 189q-151 -184 -391 -184zM702 348l-6 53q-102 68 -202 58q-70 -2 -114 -43q-44 -42 -39 -102t43 -88t102 -28t134 40t82 110z" />
    <glyph glyph-name="ccedilla" unicode="&#xe7;" horiz-adv-x="1159" 
d="M76 498q0 154 68 270q128 217 400 245q271 27 436 -154q85 -93 110 -228h-273q-25 63 -79 99q-102 68 -240 8q-59 -26 -99 -90q-39 -65 -39 -162t60 -170t140 -88q79 -15 156 24t105 127h273q-23 -156 -126 -256t-245 -129l-21 -84q96 -8 136 -83t10 -155
q-31 -80 -122 -116t-192 -23q-101 12 -178 59l17 154q47 -37 136 -41t109 43q14 49 -38 75q-54 25 -113 25l39 140q-184 28 -307 160t-123 350z" />
    <glyph glyph-name="egrave" unicode="&#xe8;" 
d="M729 1159h-219l-170 213v23l246 90l143 -299v-27zM596 793q-88 -1 -152 -47t-79 -128h434q5 90 -55 132t-148 43zM594 1012q264 0 380 -160t58 -418h-670q14 -205 263 -223q208 -10 366 61l33 -209q-186 -88 -383 -88q-252 -5 -409 139q-156 144 -154 390t152 377
q151 131 364 131z" />
    <glyph glyph-name="eacute" unicode="&#xe9;" 
d="M444 1161v25l144 297l243 -90v-23l-169 -209h-218zM596 793q-88 -1 -152 -47t-79 -128h434q5 90 -55 132t-148 43zM594 1012q264 0 380 -160t58 -418h-670q14 -205 263 -223q208 -10 366 61l33 -209q-186 -88 -383 -88q-252 -5 -409 139q-156 144 -154 390t152 377
q151 131 364 131z" />
    <glyph glyph-name="ecircumflex" unicode="&#xea;" 
d="M971 1157h-248l-145 146l-146 -146h-250v27l264 274h261l264 -276v-25zM596 793q-88 -1 -152 -47t-79 -128h434q5 90 -55 132t-148 43zM594 1012q264 0 380 -160t58 -418h-670q14 -205 263 -223q208 -10 366 61l33 -209q-186 -88 -383 -88q-252 -5 -409 139
q-156 144 -154 390t152 377q151 131 364 131z" />
    <glyph glyph-name="edieresis" unicode="&#xeb;" 
d="M340 1165q-63 0 -107 38q-43 38 -43 98q0 61 43 99t107 38t107 -38q45 -38 45 -98t-44 -99q-44 -38 -108 -38zM844 1165q-63 0 -107 38q-43 38 -43 98q0 61 43 99t107 38t106 -38q43 -38 43 -98t-43 -99q-43 -38 -106 -38zM596 793q-88 -1 -152 -47t-79 -128h434
q5 90 -55 132t-148 43zM594 1012q264 0 380 -160t58 -418h-670q14 -205 263 -223q208 -10 366 61l33 -209q-186 -88 -383 -88q-252 -5 -409 139q-156 144 -154 390t152 377q151 131 364 131z" />
    <glyph glyph-name="igrave" unicode="&#xec;" horiz-adv-x="555" 
d="M399 1145h-225l-176 217v24l254 93l147 -308v-26zM420 987v-987h-285v987h285z" />
    <glyph glyph-name="iacute" unicode="&#xed;" horiz-adv-x="555" 
d="M127 1153v25l147 307l250 -92v-25l-174 -215h-223zM420 987v-987h-285v987h285z" />
    <glyph glyph-name="icircumflex" unicode="&#xee;" horiz-adv-x="555" 
d="M647 1130h-229l-137 166l-134 -166h-233v29l246 316h243l244 -318v-27zM420 987v-987h-285v987h285z" />
    <glyph glyph-name="idieresis" unicode="&#xef;" horiz-adv-x="555" 
d="M420 987v-987h-285v987h285zM44 1163q-69 0 -116 41t-47 107q0 67 47 107t116 40t116 -41t47 -107t-47 -106q-47 -41 -116 -41zM492 1163q-70 0 -116 41t-46 107q0 67 46 107t116 40t116 -41t45 -107q1 -66 -45 -106q-46 -41 -116 -41z" />
    <glyph glyph-name="eth" unicode="&#xf0;" horiz-adv-x="1200" 
d="M598 223q90 1 164 71t74 191t-74 188t-164 67t-164 -68q-74 -66 -74 -187t74 -191t164 -71zM76 489q0 223 151 351q152 127 359 131q109 0 162 -45q-39 84 -148 188l-111 -76l-73 107l106 72q-86 111 -190 198v15h233q66 -45 119 -99l113 76l73 -102l-94 -70
q393 -436 338 -838q-22 -141 -108 -241q-168 -196 -447 -179t-413 238q-70 116 -70 274z" />
    <glyph glyph-name="ntilde" unicode="&#xf1;" horiz-adv-x="1257" 
d="M389 1178q-96 51 -145 69q119 297 385 166q119 -54 163 -25q24 15 37 52q84 -41 142 -66q-41 -135 -143 -185t-222 9q-53 27 -81 38q-27 11 -69 1t-67 -59zM1137 0h-289v571q4 95 -50 153t-138 58t-146 -58t-61 -159v-565h-287v682q0 77 -10 97q-10 21 -30 27t-54 5v178
q360 61 360 -133q39 80 128 117t188 37q200 0 294 -121t95 -318v-571z" />
    <glyph glyph-name="ograve" unicode="&#xf2;" horiz-adv-x="1193" 
d="M735 1159h-235l-185 211v23l265 90l155 -299v-25zM597 766q-89 0 -164 -72t-75 -197q0 -126 75 -198t164 -72t164 72t75 198q0 125 -75 197t-164 72zM1120 498q0 -166 -78 -287q-149 -231 -446 -231t-444 231q-78 121 -78 287t78 286q147 227 445 229q298 1 445 -229
q78 -120 78 -286z" />
    <glyph glyph-name="oacute" unicode="&#xf3;" horiz-adv-x="1193" 
d="M440 1165v25l154 297l262 -90v-23l-182 -209h-234zM597 766q-89 0 -164 -72t-75 -197q0 -126 75 -198t164 -72t164 72t75 198q0 125 -75 197t-164 72zM1120 498q0 -166 -78 -287q-149 -231 -446 -231t-444 231q-78 121 -78 287t78 286q147 227 445 229q298 1 445 -229
q78 -120 78 -286z" />
    <glyph glyph-name="ocircumflex" unicode="&#xf4;" horiz-adv-x="1193" 
d="M989 1155h-250l-147 154l-146 -154h-253v27l268 291h262l266 -293v-25zM597 766q-89 0 -164 -72t-75 -197q0 -126 75 -198t164 -72t164 72t75 198q0 125 -75 197t-164 72zM1120 498q0 -166 -78 -287q-149 -231 -446 -231t-444 231q-78 121 -78 287t78 286
q147 227 445 229q298 1 445 -229q78 -120 78 -286z" />
    <glyph glyph-name="otilde" unicode="&#xf5;" horiz-adv-x="1193" 
d="M373 1194q-96 51 -146 70q119 297 385 166q71 -32 105 -37q69 -9 96 63q84 -41 141 -65q-41 -135 -142 -185t-222 8q-53 27 -81 38q-27 11 -69 1t-67 -59zM597 766q-89 0 -164 -72t-75 -197q0 -126 75 -198t164 -72t164 72t75 198q0 125 -75 197t-164 72zM1120 498
q0 -166 -78 -287q-149 -231 -446 -231t-444 231q-78 121 -78 287t78 286q147 227 445 229q298 1 445 -229q78 -120 78 -286z" />
    <glyph glyph-name="odieresis" unicode="&#xf6;" horiz-adv-x="1193" 
d="M354 1171q-63 0 -106 38q-43 39 -43 99t43 98t106 38q64 0 108 -38t44 -98t-44 -99q-45 -38 -108 -38zM858 1171q-63 0 -106 38q-43 39 -43 99t43 98t106 38q62 0 106 -38t44 -98t-43 -99q-44 -38 -107 -38zM597 766q-89 0 -164 -72t-75 -197q0 -126 75 -198t164 -72
t164 72t75 198q0 125 -75 197t-164 72zM1120 498q0 -166 -78 -287q-149 -231 -446 -231t-444 231q-78 121 -78 287t78 286q147 227 445 229q298 1 445 -229q78 -120 78 -286z" />
    <glyph glyph-name="divide" unicode="&#xf7;" horiz-adv-x="1103" 
d="M104 610v246h895v-246h-895zM723 1130q0 -72 -48 -114t-121 -41q-73 0 -121 43q-48 42 -48 112t48 114t121 44t121 -43t48 -115zM554 186q-73 0 -121 43t-48 113t48 114t121 44t121 -43t48 -115t-48 -114t-121 -42z" />
    <glyph glyph-name="oslash" unicode="&#xf8;" horiz-adv-x="1196" 
d="M850 498q0 98 -62 168l-225 -441q109 -18 198 56t89 217zM350 514q0 -129 68 -192l225 446q-111 23 -202 -51t-91 -203zM1122 498q0 -145 -61 -259t-157 -171t-213 -81q-118 -24 -228 11l-55 -113h-224l99 193q-207 137 -207 420q0 196 106 326t258 170t308 1l59 119h223
l-102 -205q194 -143 194 -411z" />
    <glyph glyph-name="ugrave" unicode="&#xf9;" horiz-adv-x="1239" 
d="M723 1163h-223l-172 213v25l247 90l148 -303v-25zM784 987h287v-690q0 -75 15 -99t77 -20l2 -178q-123 -29 -230 -13q-58 9 -94 49t-36 107q-39 -81 -126 -119t-190 -38q-367 0 -366 436v565h289v-565q-4 -100 44 -156t131 -56q83 -1 140 59t57 159v559z" />
    <glyph glyph-name="uacute" unicode="&#xfa;" horiz-adv-x="1239" 
d="M461 1163v27l145 299l246 -90v-23l-172 -213h-219zM784 987h287v-690q0 -75 15 -99t77 -20l2 -178q-123 -29 -230 -13q-58 9 -94 49t-36 107q-39 -81 -126 -119t-190 -38q-367 0 -366 436v565h289v-565q-4 -100 44 -156t131 -56q83 -1 140 59t57 159v559z" />
    <glyph glyph-name="ucircumflex" unicode="&#xfb;" horiz-adv-x="1239" 
d="M1012 1147h-260l-156 151l-152 -151h-264v27l279 288h274l279 -291v-24zM784 987h287v-690q0 -75 15 -99t77 -20l2 -178q-123 -29 -230 -13q-58 9 -94 49t-36 107q-39 -81 -126 -119t-190 -38q-367 0 -366 436v565h289v-565q-4 -100 44 -156t131 -56q83 -1 140 59t57 159
v559z" />
    <glyph glyph-name="udieresis" unicode="&#xfc;" horiz-adv-x="1239" 
d="M483 1298q-1 -66 -45 -104t-112 -39q-68 0 -114 40t-46 103q0 64 46 104t114 40t112 -39t45 -105zM856 1155q-68 0 -113 39q-45 38 -45 104t45 105t113 39t113 -39t45 -105t-45 -104t-113 -39zM784 987h287v-690q0 -75 15 -99t77 -20l2 -178q-123 -29 -230 -13
q-58 9 -94 49t-36 107q-39 -81 -126 -119t-190 -38q-367 0 -366 436v565h289v-565q-4 -100 44 -156t131 -56q83 -1 140 59t57 159v559z" />
    <glyph glyph-name="yacute" unicode="&#xfd;" horiz-adv-x="1144" 
d="M410 1143v26l153 320l262 -96v-25l-182 -225h-233zM14 987h301l134 -334l129 -364h6l112 362l119 336h291v-33l-418 -1050q-81 -205 -166 -302q-51 -58 -111 -82q-131 -52 -335 23l30 199q123 -49 191 -11t113 165l36 102l-432 956v33z" />
    <glyph glyph-name="thorn" unicode="&#xfe;" horiz-adv-x="1198" 
d="M831 502q-1 120 -65 192t-157 73t-197 -54v-422q104 -55 197 -54t158 72q64 72 64 193zM1120 502q0 -190 -97 -326t-253 -173q-156 -36 -352 42v-551h-285v1979h285v-515q282 125 492 -16t210 -440z" />
    <glyph glyph-name="ydieresis" unicode="&#xff;" horiz-adv-x="1144" 
d="M292 1163q-69 0 -116 41t-47 107q0 67 47 107t116 40t116 -41t47 -107t-47 -106q-47 -41 -116 -41zM836 1163q-70 0 -116 41t-46 107q0 67 46 107t116 40t116 -41t45 -107q1 -66 -45 -106q-46 -41 -116 -41zM14 987h301l134 -334l129 -364h6l112 362l119 336h291v-33
l-418 -1050q-81 -205 -166 -302q-51 -58 -111 -82q-131 -52 -335 23l30 199q123 -49 191 -11t113 165l36 102l-432 956v33z" />
    <glyph glyph-name="Amacron" unicode="&#x100;" horiz-adv-x="1433" 
d="M387 1542v219h655v-219h-655zM717 969l-199 -473h397zM-12 0v41l659 1405h141l656 -1405v-41h-318l-112 238h-596l-111 -238h-319z" />
    <glyph glyph-name="amacron" unicode="&#x101;" 
d="M215 1174v219h655v-219h-655zM705 354v52q-84 57 -205 57q-72 -4 -117 -44q-45 -41 -39 -101t45 -88t105 -28t136 40q69 40 75 112zM406 -18q-125 0 -231 85q-105 85 -109 224q-8 174 100 265q109 91 277 91t268 -63v67q0 141 -246 142q-178 0 -285 -60l-37 205
q156 74 371 74q471 0 471 -369v-356q0 -68 9 -93q8 -24 28 -30t55 -4l2 -160q-77 -14 -147 -14t-118 42t-48 124q-41 -86 -138 -128t-222 -42z" />
    <glyph glyph-name="Abreve" unicode="&#x102;" horiz-adv-x="1433" 
d="M303 1903h246q0 -61 51 -97q52 -36 114 -34q62 0 113 34t52 97h241q0 -96 -45 -172q-77 -131 -260 -169t-350 55q-72 40 -117 115t-45 171zM717 969l-199 -473h397zM-12 0v41l659 1405h141l656 -1405v-41h-318l-112 238h-596l-111 -238h-319z" />
    <glyph glyph-name="abreve" unicode="&#x103;" 
d="M164 1468h225q0 -76 76 -108q77 -32 151 1q74 32 74 107h221q0 -106 -55 -183q-104 -146 -317 -146t-320 148q-55 77 -55 181zM705 354v52q-84 57 -205 57q-72 -4 -117 -44q-45 -41 -39 -101t45 -88t105 -28t136 40q69 40 75 112zM406 -18q-125 0 -231 85
q-105 85 -109 224q-8 174 100 265q109 91 277 91t268 -63v67q0 141 -246 142q-178 0 -285 -60l-37 205q156 74 371 74q471 0 471 -369v-356q0 -68 9 -93q8 -24 28 -30t55 -4l2 -160q-77 -14 -147 -14t-118 42t-48 124q-41 -86 -138 -128t-222 -42z" />
    <glyph glyph-name="Aogonek" unicode="&#x104;" horiz-adv-x="1435" 
d="M-10 0v41l659 1405h142l655 -1405v-41q-98 20 -180 -56t-35 -159q25 -45 88 -53t158 55l39 -180q-76 -49 -176 -69t-198 12q-97 32 -132 124q-70 178 114 332l-108 232h-596l-111 -238h-319zM719 944l-199 -448h398z" />
    <glyph glyph-name="aogonek" unicode="&#x105;" horiz-adv-x="1132" 
d="M406 -18q-125 0 -231 85q-105 85 -109 224q-8 174 100 265q109 91 275 91t266 -63v63q0 55 -42 90q-41 35 -91 45t-109 11q-178 0 -285 -60l-37 205q156 74 369 74t343 -87t130 -286v-352q0 -68 9 -93q8 -24 28 -30t55 -4l2 -160q-78 8 -136 -58t-21 -128q20 -35 76 -39
t141 47l35 -160q-104 -67 -252 -63q-68 2 -122 40t-73 109q-25 74 11 144t108 110q-70 31 -82 150q-41 -86 -137 -128t-221 -42zM705 354v52q-84 57 -205 57q-72 -4 -117 -44q-45 -41 -39 -101t45 -88t105 -28t136 40q69 40 75 112z" />
    <glyph glyph-name="Cacute" unicode="&#x106;" horiz-adv-x="1558" 
d="M659 1583v27l168 325l287 -98v-25l-201 -229h-254zM86 715q0 341 217 539t516 194q238 0 426 -130t236 -380h-297q-92 233 -365 233q-190 1 -307 -125t-117 -322t117 -328t305 -132q137 0 238 66q100 66 135 192h295q-43 -266 -231 -401t-435 -135q-294 0 -508 185
q-101 89 -163 231t-62 313z" />
    <glyph glyph-name="cacute" unicode="&#x107;" horiz-adv-x="1155" 
d="M424 1182v24l162 291l272 -88v-23l-190 -204h-244zM358 486q0 -97 60 -170t140 -88q79 -15 156 24t105 127h273q-23 -137 -108 -233q-166 -188 -438 -164q-272 25 -403 243q-69 117 -69 272t68 271q128 217 400 245q271 27 436 -154q84 -93 109 -228h-272q-25 63 -79 99
t-118 35q-150 -2 -221 -117q-39 -65 -39 -162z" />
    <glyph glyph-name="Ccircumflex" unicode="&#x108;" horiz-adv-x="1558" 
d="M1255 1550h-272l-162 160l-159 -160h-277v29l293 303h287l290 -305v-27zM86 715q0 341 217 539t516 194q238 0 426 -130t236 -380h-297q-92 233 -365 233q-190 1 -307 -125t-117 -322t117 -328t305 -132q137 0 238 66q100 66 135 192h295q-43 -266 -231 -401t-435 -135
q-294 0 -508 185q-101 89 -163 231t-62 313z" />
    <glyph glyph-name="ccircumflex" unicode="&#x109;" horiz-adv-x="1155" 
d="M983 1143h-250l-147 151l-146 -151h-254v26l269 289h262l266 -291v-24zM358 486q0 -97 60 -170t140 -88q79 -15 156 24t105 127h273q-23 -137 -108 -233q-166 -188 -438 -164q-272 25 -403 243q-69 117 -69 272t68 271q128 217 400 245q271 27 436 -154q84 -93 109 -228
h-272q-25 63 -79 99t-118 35q-150 -2 -221 -117q-39 -65 -39 -162z" />
    <glyph glyph-name="Cdotaccent" unicode="&#x10a;" horiz-adv-x="1558" 
d="M789 1563q-75 0 -123 44q-48 45 -50 117q0 72 50 117t124 45t124 -45t50 -118t-50 -117t-125 -43zM86 715q0 341 217 539t516 194q238 0 426 -130t236 -380h-297q-92 233 -365 233q-190 1 -307 -125t-117 -322t117 -328t305 -132q137 0 238 66q100 66 135 192h295
q-43 -266 -231 -401t-435 -135q-294 0 -508 185q-101 89 -163 231t-62 313z" />
    <glyph glyph-name="cdotaccent" unicode="&#x10b;" horiz-adv-x="1155" 
d="M758 1313q0 -61 -45 -100t-112 -39t-111 38t-44 100t44 101t111 39t112 -39t45 -100zM358 486q0 -97 60 -170t140 -88q79 -15 156 24t105 127h273q-23 -137 -108 -233q-166 -188 -438 -164q-272 25 -403 243q-69 117 -69 272t68 271q128 217 400 245q271 27 436 -154
q84 -93 109 -228h-272q-25 63 -79 99t-118 35q-150 -2 -221 -117q-39 -65 -39 -162z" />
    <glyph glyph-name="Ccaron" unicode="&#x10c;" horiz-adv-x="1558" 
d="M389 1886h275l153 -157l152 157h278v-26l-289 -297h-282l-287 297v26zM86 715q0 341 217 539t516 194q238 0 426 -130t236 -380h-297q-92 233 -365 233q-190 1 -307 -125t-117 -322t117 -328t305 -132q137 0 238 66q100 66 135 192h295q-43 -266 -231 -401t-435 -135
q-294 0 -508 185q-101 89 -163 231t-62 313z" />
    <glyph glyph-name="ccaron" unicode="&#x10d;" horiz-adv-x="1155" 
d="M160 1452h270l152 -156l147 156h272v-27l-282 -292h-279l-280 292v27zM358 486q0 -97 60 -170t140 -88q79 -15 156 24t105 127h273q-23 -137 -108 -233q-166 -188 -438 -164q-272 25 -403 243q-69 117 -69 272t68 271q128 217 400 245q271 27 436 -154q84 -93 109 -228
h-272q-25 63 -79 99t-118 35q-150 -2 -221 -117q-39 -65 -39 -162z" />
    <glyph glyph-name="Dcaron" unicode="&#x10e;" horiz-adv-x="1490" 
d="M193 1876h264l151 -152l148 152h268v-25l-279 -288h-276l-276 288v25zM473 276h223q188 0 294 130t108 312q0 183 -108 310t-294 127h-223v-879zM168 1432h532q326 0 514 -210t190 -502t-185 -506q-188 -214 -519 -214h-532v1432z" />
    <glyph glyph-name="dcaron" unicode="&#x10f;" horiz-adv-x="1236" 
d="M1298 1491q64 0 108 -29q69 -45 69 -131q-4 -39 -15 -63l-84 -258h-168l49 174q-53 14 -86 54t-33 104t48 106q48 43 112 43zM782 455v254q-154 91 -288 29t-134 -244q0 -115 54 -190t154 -75t157 66t57 160zM76 494q0 143 60 260q115 224 384 252q125 12 254 -56v547
h287v-1255q0 -38 5 -44t12 -18t31 -17t44 -3l2 -162q-77 -14 -147 -16t-124 38t-55 119v27q-41 -90 -119 -139t-178 -52q-216 -4 -336 147t-120 372z" />
    <glyph glyph-name="Dcroat" unicode="&#x110;" horiz-adv-x="1509" 
d="M492 276h223q189 0 295 130t106 312q0 183 -107 310q-108 127 -294 127h-223v-330h229v-239h-229v-310zM31 586v239h155v607h533q326 0 514 -210t190 -502t-186 -506t-518 -214h-533v586h-155z" />
    <glyph glyph-name="dcroat" unicode="&#x111;" horiz-adv-x="1232" 
d="M76 492q0 143 60 260q115 224 384 252q125 12 254 -56v207h-194v176h194v164h287v-164h153v-176h-153v-908q0 -35 3 -43t7 -18q4 -11 21 -20q16 -8 30 -8h31l2 -160q-73 -14 -145 -17t-126 37t-55 119v27q-41 -90 -119 -139t-178 -50q-216 -4 -336 146t-120 371zM782 453
v247q-154 92 -288 31t-134 -239q0 -115 54 -190t154 -75t157 66t57 160z" />
    <glyph glyph-name="Emacron" unicode="&#x112;" horiz-adv-x="1171" 
d="M299 1571v219h655v-219h-655zM1044 1434v-269h-569v-291h533v-268h-533v-327h586v-279h-895v1434h878z" />
    <glyph glyph-name="emacron" unicode="&#x113;" 
d="M262 1155v219h656v-219h-656zM596 793q-88 -1 -152 -47t-79 -128h434q5 90 -55 132t-148 43zM594 1012q264 0 380 -160t58 -418h-670q14 -205 263 -223q208 -10 366 61l33 -209q-186 -88 -383 -88q-252 -5 -409 139q-156 144 -154 390t152 377q151 131 364 131z" />
    <glyph glyph-name="Ebreve" unicode="&#x114;" horiz-adv-x="1171" 
d="M203 1896h233q0 -78 79 -110t158 1q79 32 79 109h229q0 -94 -43 -166q-75 -127 -247 -163q-172 -35 -334 54q-69 39 -111 111t-43 164zM1044 1434v-269h-569v-291h533v-268h-533v-327h586v-279h-895v1434h878z" />
    <glyph glyph-name="ebreve" unicode="&#x115;" 
d="M215 1448h221q0 -72 74 -102t148 1q74 30 73 101h217q0 -100 -54 -174q-103 -141 -311 -140t-314 141q-54 73 -54 173zM596 793q-88 -1 -152 -47t-79 -128h434q5 90 -55 132t-148 43zM594 1012q264 0 380 -160t58 -418h-670q14 -205 263 -223q208 -10 366 61l33 -209
q-186 -88 -383 -88q-252 -5 -409 139q-156 144 -154 390t152 377q151 131 364 131z" />
    <glyph glyph-name="Edotaccent" unicode="&#x116;" horiz-adv-x="1171" 
d="M622 1874q72 0 120 -43t48 -115t-47 -114q-48 -42 -121 -41q-73 0 -121 43q-48 42 -48 112t48 114t121 44zM1044 1434v-269h-569v-291h533v-268h-533v-327h586v-279h-895v1434h878z" />
    <glyph glyph-name="edotaccent" unicode="&#x117;" 
d="M580 1444q72 0 120 -40t48 -106t-48 -106t-121 -39q-73 0 -120 40q-47 39 -47 105t48 106t120 40zM596 793q-88 -1 -152 -47t-79 -128h434q5 90 -55 132t-148 43zM594 1012q264 0 380 -160t58 -418h-670q14 -205 263 -223q208 -10 366 61l33 -209q-186 -88 -383 -88
q-252 -5 -409 139q-156 144 -154 390t152 377q151 131 364 131z" />
    <glyph glyph-name="Eogonek" unicode="&#x118;" horiz-adv-x="1163" 
d="M1036 1434v-269h-561v-291h524v-268h-524v-327h578v-279h-195q-61 -36 -88 -102t-2 -114t79 -52q90 -7 191 57l39 -180q-127 -87 -294 -83q-79 1 -143 44t-88 128t8 166t104 136h-498v1434h870z" />
    <glyph glyph-name="eogonek" unicode="&#x119;" horiz-adv-x="1130" 
d="M594 1012q264 0 380 -160t58 -418h-670q8 -119 90 -173t232 -54q151 0 307 65l33 -209q-63 -31 -141 -53q-59 -37 -88 -93t-4 -101t73 -50q83 -9 176 54l35 -168q-74 -48 -171 -64t-188 24t-122 138q-39 117 72 227q-80 -4 -140 9q-206 31 -328 167t-122 353
q4 244 154 375q151 131 364 131zM365 608h428q13 88 -49 136t-150 48t-152 -48t-77 -136z" />
    <glyph glyph-name="Ecaron" unicode="&#x11a;" horiz-adv-x="1171" 
d="M188 1874h271l151 -156l148 156h272v-27l-282 -293h-279l-281 293v27zM1044 1434v-269h-569v-291h533v-268h-533v-327h586v-279h-895v1434h878z" />
    <glyph glyph-name="ecaron" unicode="&#x11b;" 
d="M186 1454h260l148 -149l141 149h264v-24l-272 -285h-268l-273 285v24zM596 793q-88 -1 -152 -47t-79 -128h434q5 90 -55 132t-148 43zM594 1012q264 0 380 -160t58 -418h-670q14 -205 263 -223q208 -10 366 61l33 -209q-186 -88 -383 -88q-252 -5 -409 139
q-156 144 -154 390t152 377q151 131 364 131z" />
    <glyph glyph-name="Gcircumflex" unicode="&#x11c;" horiz-adv-x="1576" 
d="M1225 1561h-273l-161 159l-160 -159h-277v28l293 303h287l291 -305v-26zM86 717q0 227 105 398t269 254t376 83t394 -118t238 -353h-301q-100 195 -350 195q-195 0 -307 -130t-113 -332q0 -202 115 -328t290 -126t274 60t143 215h-392v258h672q14 -242 -43 -402
q-78 -207 -249 -308t-390 -101q-301 0 -516 198t-215 537z" />
    <glyph glyph-name="gcircumflex" unicode="&#x11d;" horiz-adv-x="1187" 
d="M1024 1128h-254l-152 160l-149 -160h-260v29l274 303h269l272 -305v-27zM778 258v481q-80 20 -168 21q-240 0 -248 -279q-2 -127 60 -201q116 -140 356 -22zM782 -59v82q-284 -135 -494 2t-210 454q0 266 158 393t403 123q207 0 420 -90v-954q0 -193 -86 -317
q-157 -227 -514 -180q-160 22 -312 104l37 221q279 -147 454 -91q62 19 103 84t41 169z" />
    <glyph glyph-name="Gbreve" unicode="&#x11e;" horiz-adv-x="1576" 
d="M375 1919h252q0 -61 53 -97q54 -36 116 -36t115 36t54 97h247q0 -98 -46 -176t-120 -118t-162 -58q-89 -18 -179 1t-164 59t-120 117t-46 175zM86 717q0 227 105 398t269 254t376 83t394 -118t238 -353h-301q-100 195 -350 195q-195 0 -307 -130t-113 -332
q0 -202 115 -328t290 -126t274 60t143 215h-392v258h672q14 -242 -43 -402q-78 -207 -249 -308t-390 -101q-301 0 -516 198t-215 537z" />
    <glyph glyph-name="gbreve" unicode="&#x11f;" horiz-adv-x="1187" 
d="M225 1450h232q0 -80 79 -112q78 -32 156 1t78 111h229q0 -108 -57 -188q-107 -150 -329 -150t-330 152q-58 80 -58 186zM778 258v481q-80 20 -168 21q-240 0 -248 -279q-2 -127 60 -201q116 -140 356 -22zM782 -59v82q-284 -135 -494 2t-210 454q0 266 158 393t403 123
q207 0 420 -90v-954q0 -193 -86 -317q-157 -227 -514 -180q-160 22 -312 104l37 221q279 -147 454 -91q62 19 103 84t41 169z" />
    <glyph glyph-name="Gdotaccent" unicode="&#x120;" horiz-adv-x="1576" 
d="M773 1579q-75 0 -124 41t-49 109q0 69 49 111t124 42t125 -43t50 -111t-50 -108q-50 -41 -125 -41zM86 717q0 227 105 398t269 254t376 83t394 -118t238 -353h-301q-100 195 -350 195q-195 0 -307 -130t-113 -332q0 -202 115 -328t290 -126t274 60t143 215h-392v258h672
q14 -242 -43 -402q-78 -207 -249 -308t-390 -101q-301 0 -516 198t-215 537z" />
    <glyph glyph-name="gdotaccent" unicode="&#x121;" horiz-adv-x="1187" 
d="M640 1155q-69 0 -114 41t-45 107q0 65 45 107t114 42t114 -41t45 -107t-45 -108q-45 -41 -114 -41zM778 258v481q-80 20 -168 21q-240 0 -248 -279q-2 -127 60 -201q116 -140 356 -22zM782 -59v82q-284 -135 -494 2t-210 454q0 266 158 393t403 123q207 0 420 -90v-954
q0 -193 -86 -317q-157 -227 -514 -180q-160 22 -312 104l37 221q279 -147 454 -91q62 19 103 84t41 169z" />
    <glyph glyph-name="Gcommaaccent" unicode="&#x122;" horiz-adv-x="1576" 
d="M86 717q0 227 105 398t269 254t376 83t394 -118t238 -353h-301q-100 195 -350 195q-195 0 -307 -130t-113 -332q0 -202 115 -328t290 -126t274 60t143 215h-392v258h672q14 -242 -43 -402q-78 -207 -249 -308t-390 -101q-301 0 -516 198t-215 537zM1022 -276
q0 -35 -14 -64l-82 -227h-166l49 145q-117 39 -117 150q0 70 46 112t110 41q64 0 106 -28q68 -46 68 -129z" />
    <glyph glyph-name="gcommaaccent" unicode="&#x123;" horiz-adv-x="1187" 
d="M791 1272q1 -59 -45 -95t-115 -36q-117 0 -154 88q-8 18 -6 50t12 50l78 215h164l-47 -145q113 -29 113 -127zM778 258v481q-80 20 -168 21q-240 0 -248 -279q-2 -127 60 -201q116 -140 356 -22zM782 -59v82q-284 -135 -494 2t-210 454q0 266 158 393t403 123
q207 0 420 -90v-954q0 -193 -86 -317q-157 -227 -514 -180q-160 22 -312 104l37 221q279 -147 454 -91q62 19 103 84t41 169z" />
    <glyph glyph-name="Hcircumflex" unicode="&#x124;" horiz-adv-x="1492" 
d="M1171 1575h-272l-162 160l-159 -160h-277v29l293 303h287l290 -305v-27zM1327 0h-307v606h-549v-606h-305v1434h305v-547h549v547h307v-1434z" />
    <glyph glyph-name="hcircumflex" unicode="&#x125;" horiz-adv-x="1224" 
d="M1051 1577h-263l-157 158l-154 -158h-266v29l283 299h276l281 -301v-27zM1104 0h-289v571q4 99 -47 155t-137 57q-85 1 -147 -58t-62 -160v-565h-289v1495h289v-614q92 129 294 129t295 -118t93 -321v-571z" />
    <glyph glyph-name="Hbar" unicode="&#x126;" horiz-adv-x="1515" 
d="M481 854h549v207h-549v-207zM53 1061v194h123v179h305v-179h549v179h307v-179h127v-194h-127v-1061h-307v573h-549v-573h-305v1061h-123z" />
    <glyph glyph-name="hbar" unicode="&#x127;" horiz-adv-x="1224" 
d="M1104 0h-289v571q2 99 -49 155t-137 56q-85 0 -147 -58t-62 -159v-565h-287v1163h-123v180h123v152h287v-152h168v-180h-168v-295q102 142 299 142t291 -118t94 -321v-571z" />
    <glyph glyph-name="Itilde" unicode="&#x128;" horiz-adv-x="897" 
d="M219 1569l-153 73q127 317 405 177q166 -92 213 26l150 -69q-44 -142 -150 -196t-235 9q-55 29 -87 41t-76 2q-42 -10 -67 -63zM602 244h203v-244h-713v244h203v952h-186v238h679v-238h-186v-952z" />
    <glyph glyph-name="itilde" unicode="&#x129;" horiz-adv-x="555" 
d="M469 1458l131 -69q-37 -137 -131 -191t-205 8q-114 71 -162 37q-23 -16 -39 -57l-135 74q115 311 355 172q107 -62 150 -29q22 16 36 55zM420 987v-987h-285v987h285z" />
    <glyph glyph-name="Imacron" unicode="&#x12a;" horiz-adv-x="897" 
d="M121 1573v219h655v-219h-655zM602 244h203v-244h-713v244h203v952h-186v238h679v-238h-186v-952z" />
    <glyph glyph-name="imacron" unicode="&#x12b;" horiz-adv-x="555" 
d="M2 1161v225h545v-225h-545zM420 987v-987h-285v987h285z" />
    <glyph glyph-name="Ibreve" unicode="&#x12c;" horiz-adv-x="897" 
d="M39 1898h237q0 -61 50 -95t110 -34q59 0 110 35q50 35 50 94h233q0 -114 -58 -196q-112 -160 -338 -157q-226 2 -336 158q-58 82 -58 195zM602 244h203v-244h-713v244h203v952h-186v238h679v-238h-186v-952z" />
    <glyph glyph-name="ibreve" unicode="&#x12d;" horiz-adv-x="555" 
d="M-76 1452h207q0 -78 70 -110q71 -32 139 0t68 110h204q0 -106 -51 -184t-127 -113t-166 -35t-166 36t-127 114t-51 182zM420 987v-987h-285v987h285z" />
    <glyph glyph-name="Iogonek" unicode="&#x12e;" horiz-adv-x="901" 
d="M604 250h203v-250h-242q-57 -39 -85 -100t1 -119q25 -45 93 -50t176 58l38 -180q-125 -82 -305 -78q-81 2 -147 45t-85 120t17 163q37 86 105 141h-279v250h203v936h-186v248h680v-248h-187v-936z" />
    <glyph glyph-name="iogonek" unicode="&#x12f;" horiz-adv-x="557" 
d="M422 975v-975h-103q-53 -41 -75 -97t2 -114q25 -45 79 -50q88 -8 189 58l39 -182q-55 -37 -135 -55q-189 -42 -302 39q-65 45 -83 119t13 157q32 82 89 129v971h287zM113 1284q0 90 83 132q82 42 166 0t84 -132t-52 -134t-114 -44t-115 44q-52 44 -52 134z" />
    <glyph glyph-name="Idotaccent" unicode="&#x130;" horiz-adv-x="897" 
d="M433 1573q-79 0 -131 44t-52 115q0 70 52 114t131 44t131 -44t52 -116t-52 -114q-52 -43 -131 -43zM602 244h203v-244h-713v244h203v952h-186v238h679v-238h-186v-952z" />
    <glyph glyph-name="dotlessi" unicode="&#x131;" horiz-adv-x="555" 
d="M420 987v-987h-285v987h285z" />
    <glyph glyph-name="IJ" unicode="&#x132;" horiz-adv-x="2187" 
d="M2034 1434v-959q0 -225 -159 -360t-389 -135t-383 134t-153 361v174h285v-168q0 -113 69 -171q68 -58 180 -58t178 59t64 170v688h-256v265h564zM602 244h203v-244h-713v244h203v952h-186v238h679v-238h-186v-952z" />
    <glyph glyph-name="ij" unicode="&#x133;" horiz-adv-x="1107" 
d="M662 1272q0 78 52 122t115 44t115 -44t53 -122q0 -78 -52 -123q-51 -45 -115 -45t-116 45t-52 123zM690 983h283l-2 -1100q0 -260 -125 -351t-365 -48l8 213q119 -16 160 27t41 163v1096zM420 975v-975h-287v975h287zM109 1272q0 78 52 122t115 44q64 0 116 -44t52 -122
t-52 -123t-116 -45t-115 45q-52 45 -52 123z" />
    <glyph glyph-name="Jcircumflex" unicode="&#x134;" horiz-adv-x="1290" 
d="M1251 1573h-256l-151 162l-152 -162h-260v29l277 307h270l272 -310v-26zM1137 1434v-959q0 -225 -159 -360t-389 -135t-383 134t-153 361v174h285v-168q0 -113 69 -171t181 -58t176 59q66 59 65 170v688h-256v265h564z" />
    <glyph glyph-name="jcircumflex" unicode="&#x135;" horiz-adv-x="552" 
d="M639 1112h-229l-138 170l-137 -170h-233v29l248 323h243l246 -325v-27zM135 983h283l-2 -1100q0 -260 -125 -351t-365 -48l8 213q119 -16 160 27t41 163v1096z" />
    <glyph glyph-name="Kcommaaccent" unicode="&#x136;" horiz-adv-x="1439" 
d="M471 1434v-592q195 0 248 26q51 29 80 98t63 214q92 334 490 252v-209q-88 8 -136 -23t-71 -110q-72 -272 -180 -381l438 -664v-45h-346l-361 590q-55 -14 -225 -15v-575h-305v1434h305zM944 -246q0 -35 -14 -63l-82 -228h-166l49 146q-117 39 -117 149q0 70 46 112
t110 42t107 -29q67 -45 67 -129z" />
    <glyph glyph-name="kcommaaccent" unicode="&#x137;" horiz-adv-x="1146" 
d="M418 625h69q158 0 222 97q63 97 63 267h270q4 -172 -47 -294t-188 -193l283 -471v-29h-289l-236 410q-37 -12 -82 -13h-65v-397h-285v1495h285v-872zM748 -258q0 -29 -13 -64l-78 -215h-157l47 138q-111 39 -111 141q0 66 44 106t112 39q111 0 147 -98q9 -18 9 -47z" />
    <glyph glyph-name="kgreenlandic" unicode="&#x138;" horiz-adv-x="1138" 
d="M412 608h69q156 0 215 100t60 281h276q6 -176 -44 -304t-187 -200l278 -456v-29h-311l-219 395q-37 -12 -137 -12v-383h-285v987h285v-379z" />
    <glyph glyph-name="Lacute" unicode="&#x139;" horiz-adv-x="1103" 
d="M172 1561v26l154 320l262 -97v-24l-182 -225h-234zM473 1434v-1160h598v-274h-905v1434h307z" />
    <glyph glyph-name="lacute" unicode="&#x13a;" horiz-adv-x="632" 
d="M141 1595v25l144 295l241 -88v-23l-168 -209h-217zM125 1499h283v-1124q0 -111 45 -145t151 -15l10 -215q-244 -43 -366 39t-123 336v1124z" />
    <glyph glyph-name="Lcommaaccent" unicode="&#x13b;" horiz-adv-x="1103" 
d="M473 1434v-1160h598v-274h-905v1434h307zM799 -270q0 -35 -15 -64l-82 -227h-165l49 145q-117 39 -117 150q0 70 46 112q45 42 109 41q64 0 107 -28q68 -46 68 -129z" />
    <glyph glyph-name="lcommaaccent" unicode="&#x13c;" horiz-adv-x="632" 
d="M125 1499h283v-1124q0 -111 45 -145t151 -15l10 -215q-244 -43 -366 39t-123 336v1124zM543 -284q0 -34 -15 -60l-77 -219h-160l47 139q-113 39 -113 145q0 66 45 107t113 41q117 0 152 -100q8 -19 8 -53z" />
    <glyph glyph-name="Lcaron" unicode="&#x13d;" horiz-adv-x="1110" 
d="M686 1292q0 60 45 102t115 42q117 0 153 -103q7 -49 6 -65t-12 -45l-80 -248h-161l47 166q-51 14 -82 52q-31 39 -31 99zM473 1434v-1160h598v-274h-905v1434h307z" />
    <glyph glyph-name="lcaron" unicode="&#x13e;" horiz-adv-x="632" 
d="M646 1495q60 0 102 -28q64 -42 65 -124q-2 -31 -12 -59l-80 -244h-160l47 164q-112 31 -112 149q0 61 45 101t105 41zM125 1499h283v-1124q0 -111 45 -145t151 -15l10 -215q-244 -43 -366 39t-123 336v1124z" />
    <glyph glyph-name="Ldot" unicode="&#x13f;" horiz-adv-x="1105" 
d="M971 776q0 -72 -44 -115t-113 -43t-114 44t-45 114q0 72 45 115t114 43t113 -43t44 -115zM473 1434v-1160h598v-274h-905v1434h307z" />
    <glyph glyph-name="ldot" unicode="&#x140;" horiz-adv-x="839" 
d="M687 616q-67 0 -109 42t-43 114q0 72 43 114q44 42 110 42t109 -43t43 -113t-43 -113t-110 -43zM125 1499h283v-1124q0 -111 45 -145t151 -15l10 -215q-244 -43 -366 39t-123 336v1124z" />
    <glyph glyph-name="Lslash" unicode="&#x141;" horiz-adv-x="1116" 
d="M487 1434v-578l205 57v-245l-205 -58v-336h566v-274h-873v526l-139 -39v246l139 39v662h307z" />
    <glyph glyph-name="lslash" unicode="&#x142;" horiz-adv-x="694" 
d="M178 1497h283v-647l170 47v-246l-170 -47v-221q0 -115 46 -156t150 -24l11 -217q-254 -44 -372 32t-118 338v170l-143 -41v246l143 41v725z" />
    <glyph glyph-name="Nacute" unicode="&#x143;" horiz-adv-x="1540" 
d="M541 1528v26l161 324l279 -98v-25l-193 -227h-247zM471 0h-305v1440h96l805 -819v813h307v-1438h-92l-811 823v-819z" />
    <glyph glyph-name="nacute" unicode="&#x144;" horiz-adv-x="1257" 
d="M461 1178v24l157 291l269 -88v-23l-187 -204h-239zM1137 0h-289v571q4 95 -50 153t-138 58t-146 -58t-61 -159v-565h-287v682q0 77 -10 97q-10 21 -30 27t-54 5v178q360 61 360 -133q39 80 128 117t188 37q200 0 294 -121t95 -318v-571z" />
    <glyph glyph-name="Ncommaaccent" unicode="&#x145;" horiz-adv-x="1540" 
d="M471 0h-305v1440h96l805 -819v813h307v-1438h-92l-811 823v-819zM1006 -256q0 -35 -15 -63l-82 -228h-166l50 146q-117 39 -117 149q0 70 46 112t110 42t106 -29q68 -46 68 -129z" />
    <glyph glyph-name="ncommaaccent" unicode="&#x146;" horiz-adv-x="1257" 
d="M1137 0h-289v571q4 95 -50 153t-138 58t-146 -58t-61 -159v-565h-287v682q0 77 -10 97q-10 21 -30 27t-54 5v178q360 61 360 -133q39 80 128 117t188 37q200 0 294 -121t95 -318v-571zM825 -260q0 -33 -14 -59l-78 -218h-160l48 140q-111 33 -111 141q0 66 44 106t112 41
q117 0 151 -100q8 -18 8 -51z" />
    <glyph glyph-name="Ncaron" unicode="&#x147;" horiz-adv-x="1540" 
d="M285 1862h278l158 -160l153 160h283v-27l-293 -303h-289l-290 303v27zM471 0h-305v1440h96l805 -819v813h307v-1438h-92l-811 823v-819z" />
    <glyph glyph-name="ncaron" unicode="&#x148;" horiz-adv-x="1257" 
d="M156 1479h278l158 -160l153 160h283v-27l-293 -303h-289l-290 303v27zM1137 0h-289v571q4 95 -50 153t-138 58t-146 -58t-61 -159v-565h-287v682q0 77 -10 97q-10 21 -30 27t-54 5v178q360 61 360 -133q39 80 128 117t188 37q200 0 294 -121t95 -318v-571z" />
    <glyph glyph-name="napostrophe" unicode="&#x149;" horiz-adv-x="1257" 
d="M1137 0h-289v571q4 95 -50 153t-138 58t-146 -58t-61 -159v-565h-287v682q0 77 -10 97q-10 21 -30 27t-54 5v178q360 61 360 -133q39 80 128 117t188 37q200 0 294 -121t95 -318v-571z" />
    <glyph glyph-name="Eng" unicode="&#x14a;" horiz-adv-x="1540" 
d="M1118 6v152l-647 704v-862h-305v1440h96l805 -836v830h307v-1430q0 -254 -114 -345t-347 -48l9 207q116 -16 156 26t40 162z" />
    <glyph glyph-name="eng" unicode="&#x14b;" horiz-adv-x="1251" 
d="M1128 -20q0 -481 -487 -392q6 160 8 193q115 -16 156 32t41 171v587q4 95 -50 153t-138 58t-146 -58q-61 -58 -61 -159v-565h-287v692q0 96 -14 120t-80 19v158q74 13 156 19t148 -33q67 -39 68 -119v-20q39 82 124 128t179 46q197 0 292 -121t91 -318v-591z" />
    <glyph glyph-name="Omacron" unicode="&#x14c;" horiz-adv-x="1636" 
d="M473 1583v219h655v-219h-655zM395 714q0 -220 121 -339t302 -119t304 119t123 339t-123 340t-302 120t-302 -120t-123 -340zM1550 717q0 -328 -204 -535t-520 -207t-528 198t-212 544q0 231 105 403t271 254t334 82t298 -49q284 -107 396 -373q60 -143 60 -317z" />
    <glyph glyph-name="omacron" unicode="&#x14d;" horiz-adv-x="1193" 
d="M262 1169v220h656v-220h-656zM597 766q-89 0 -164 -72t-75 -197q0 -126 75 -198t164 -72t164 72t75 198q0 125 -75 197t-164 72zM1120 498q0 -166 -78 -287q-149 -231 -446 -231t-444 231q-78 121 -78 287t78 286q147 227 445 229q298 1 445 -229q78 -120 78 -286z" />
    <glyph glyph-name="Obreve" unicode="&#x14e;" horiz-adv-x="1636" 
d="M403 1927h252q-1 -61 53 -97t116 -36t116 36q53 36 53 97h248q0 -98 -46 -176t-120 -118q-172 -93 -360 -53t-265 172q-47 77 -47 175zM395 714q0 -220 121 -339t302 -119t304 119t123 339t-123 340t-302 120t-302 -120t-123 -340zM1550 717q0 -328 -204 -535t-520 -207
t-528 198t-212 544q0 231 105 403t271 254t334 82t298 -49q284 -107 396 -373q60 -143 60 -317z" />
    <glyph glyph-name="obreve" unicode="&#x14f;" horiz-adv-x="1193" 
d="M207 1468h237q0 -78 79 -110t159 1q80 32 80 109h233q0 -110 -58 -188q-113 -153 -337 -149q-224 3 -335 152q-58 79 -58 185zM597 766q-89 0 -164 -72t-75 -197q0 -126 75 -198t164 -72t164 72t75 198q0 125 -75 197t-164 72zM1120 498q0 -166 -78 -287
q-149 -231 -446 -231t-444 231q-78 121 -78 287t78 286q147 227 445 229q298 1 445 -229q78 -120 78 -286z" />
    <glyph glyph-name="Ohungarumlaut" unicode="&#x150;" horiz-adv-x="1636" 
d="M395 714q0 -220 121 -339t302 -119t304 119t123 339t-123 340t-302 120t-302 -120t-123 -340zM1550 717q0 -328 -204 -535t-520 -207t-528 198t-212 544q0 231 105 403t271 254t334 82t298 -49q284 -107 396 -373q60 -143 60 -317zM883 1563v24l112 285l254 -70v-24
l-143 -215h-223zM440 1563v24l115 307l256 -57v-22l-145 -252h-226z" />
    <glyph glyph-name="ohungarumlaut" unicode="&#x151;" horiz-adv-x="1193" 
d="M597 766q-89 0 -164 -72t-75 -197q0 -126 75 -198t164 -72t164 72t75 198q0 125 -75 197t-164 72zM1120 498q0 -166 -78 -287q-149 -231 -446 -231t-444 231q-78 121 -78 287t78 286q147 227 445 229q298 1 445 -229q78 -120 78 -286zM682 1151v25l113 284l254 -69v-25
l-144 -215h-223zM240 1151v25l114 307l256 -58v-22l-145 -252h-225z" />
    <glyph glyph-name="OE" unicode="&#x152;" horiz-adv-x="1892" 
d="M383 717q0 -229 123 -363t321 -133q78 0 148 23v930q-66 20 -150 24q-201 0 -321 -126t-121 -355zM1784 0h-772q-106 -25 -211 -25q-307 0 -510 196t-203 544t210 545t521 192q109 0 201 -22h743v-259h-530v-307h496v-241h-496v-369h551v-254z" />
    <glyph glyph-name="oe" unicode="&#x153;" horiz-adv-x="1761" 
d="M1261 791q-77 -1 -129 -47t-69 -126h371q12 84 -42 128t-131 45zM76 493q0 132 47 237q86 193 287 256t376 -40q88 -51 146 -139q49 96 141 148q92 53 212 53t210 -48t132 -129q93 -178 34 -401h-602q14 -213 239 -223q150 -14 320 65l39 -211q-186 -82 -363 -79
q-279 4 -372 223q-45 -93 -126 -151q-158 -112 -368 -56q-210 57 -302 255q-50 108 -50 240zM358 494q0 -125 70 -197t155 -72t155 72t69 197q0 124 -70 196q-71 72 -155 72t-154 -72t-70 -196z" />
    <glyph glyph-name="Racute" unicode="&#x154;" horiz-adv-x="1415" 
d="M498 1561v26l172 318l293 -97v-24l-205 -223h-260zM471 727h307q94 0 154 65q59 66 58 158t-58 154t-154 63h-307v-440zM1354 2h-328l-295 473h-256v-473h-307v1434h612q236 0 371 -144t135 -348q0 -137 -68 -250t-188 -172l324 -477v-43z" />
    <glyph glyph-name="racute" unicode="&#x155;" horiz-adv-x="948" 
d="M324 1157v25l147 307l250 -92v-25l-174 -215h-223zM451 0h-281v696q0 72 -18 102t-80 19v176q78 13 156 17t142 -37t72 -123q29 82 106 125t171 43q123 4 211 -64l-64 -239q-86 57 -184 55t-165 -64t-66 -171v-535z" />
    <glyph glyph-name="Rcommaaccent" unicode="&#x156;" horiz-adv-x="1413" 
d="M469 727h307q94 0 154 65q59 66 58 158t-58 154t-154 63h-307v-440zM1352 2h-328l-295 473h-256v-473h-307v1434h612q236 0 371 -144t135 -348q0 -137 -68 -250t-188 -172l324 -477v-43zM909 -260q0 -35 -14 -64l-82 -227h-166l49 145q-117 39 -116 150q0 70 46 112
t109 42t107 -29q67 -45 67 -129z" />
    <glyph glyph-name="rcommaaccent" unicode="&#x157;" horiz-adv-x="948" 
d="M451 0h-281v696q0 72 -18 102t-80 19v176q78 13 156 17t142 -37t72 -123q29 82 106 125t171 43q123 4 211 -64l-64 -239q-86 57 -184 55t-165 -64t-66 -171v-535zM487 -265q0 -34 -14 -61l-78 -219h-159l47 139q-113 39 -113 146q0 66 45 106t113 41q117 0 151 -100
q8 -18 8 -52z" />
    <glyph glyph-name="Rcaron" unicode="&#x158;" horiz-adv-x="1415" 
d="M244 1901h278l158 -160l154 160h282v-27l-293 -303h-288l-291 303v27zM471 727h307q94 0 154 65q59 66 58 158t-58 154t-154 63h-307v-440zM1354 2h-328l-295 473h-256v-473h-307v1434h612q236 0 371 -144t135 -348q0 -137 -68 -250t-188 -172l324 -477v-43z" />
    <glyph glyph-name="rcaron" unicode="&#x159;" horiz-adv-x="948" 
d="M78 1452h260l147 -152l146 152h264v-25l-274 -286h-271l-272 286v25zM451 0h-281v696q0 72 -18 102t-80 19v176q78 13 156 17t142 -37t72 -123q29 82 106 125t171 43q123 4 211 -64l-64 -239q-86 57 -184 55t-165 -64t-66 -171v-535z" />
    <glyph glyph-name="Sacute" unicode="&#x15a;" horiz-adv-x="1327" 
d="M506 1589v27l166 317l282 -96v-25l-196 -223h-252zM86 424h293q4 -92 89 -139t200 -47q274 0 274 180q0 47 -21 82q-22 35 -49 52q-65 41 -243 54q-522 45 -523 408q0 223 156 337q156 113 381 113t381 -96q80 -49 127 -136t47 -202h-287q-12 82 -86 124t-173 42
t-172 -48q-72 -48 -72 -131t70 -119t202 -49q131 -13 220 -33t174 -66q85 -45 128 -128t43 -204t-49 -211t-134 -139q-165 -95 -392 -99q-238 0 -411 118t-173 337z" />
    <glyph glyph-name="sacute" unicode="&#x15b;" horiz-adv-x="1048" 
d="M365 1161v25l147 303l248 -90v-25l-172 -213h-223zM515 1014q189 0 313 -83t116 -233h-270q-2 51 -45 76t-107 25t-109 -28q-44 -28 -44 -69q1 -41 25 -61q24 -19 50 -25t159 -22q134 -16 214 -47q164 -70 160 -250q-2 -113 -69 -187q-123 -136 -376 -137
q-448 0 -460 328h286q2 -57 50 -88t112 -29q168 0 170 113q0 57 -38 72t-103 26q-229 31 -313 72q-144 69 -144 225t117 239t306 83z" />
    <glyph glyph-name="Scircumflex" unicode="&#x15c;" horiz-adv-x="1327" 
d="M1106 1567h-272l-162 159l-160 -159h-276v28l292 303h287l291 -305v-26zM86 424h293q4 -92 89 -139t200 -47q274 0 274 180q0 47 -21 82q-22 35 -49 52q-65 41 -243 54q-522 45 -523 408q0 223 156 337q156 113 381 113t381 -96q80 -49 127 -136t47 -202h-287
q-12 82 -86 124t-173 42t-172 -48q-72 -48 -72 -131t70 -119t202 -49q131 -13 220 -33t174 -66q85 -45 128 -128t43 -204t-49 -211t-134 -139q-165 -95 -392 -99q-238 0 -411 118t-173 337z" />
    <glyph glyph-name="scircumflex" unicode="&#x15d;" horiz-adv-x="1048" 
d="M918 1143h-246l-144 149l-143 -149h-250v28l264 283h256l263 -285v-26zM515 1014q189 0 313 -83t116 -233h-270q-2 51 -45 76t-107 25t-109 -28q-44 -28 -44 -69q1 -41 25 -61q24 -19 50 -25t159 -22q134 -16 214 -47q164 -70 160 -250q-2 -113 -69 -187
q-123 -136 -376 -137q-448 0 -460 328h286q2 -57 50 -88t112 -29q168 0 170 113q0 57 -38 72t-103 26q-229 31 -313 72q-144 69 -144 225t117 239t306 83z" />
    <glyph glyph-name="Scedilla" unicode="&#x15e;" horiz-adv-x="1325" 
d="M86 424h293q4 -92 89 -139q86 -47 196 -47t194 48t84 132q0 47 -21 82q-22 35 -49 52q-65 41 -243 54q-522 45 -523 406q0 142 79 248q152 204 466 204q219 0 383 -116t164 -330h-287q-4 88 -78 131q-75 43 -175 43t-176 -41q-74 -41 -74 -129t70 -124t202 -49
q131 -13 220 -33t174 -66q171 -91 171 -332q0 -178 -127 -290t-317 -144l-29 -121q98 -12 136 -79t10 -154t-116 -124q-90 -38 -190 -24t-178 63l17 158q47 -37 128 -38t103 48q14 51 -34 74t-105 23l43 165q-208 18 -354 134t-146 315z" />
    <glyph glyph-name="scedilla" unicode="&#x15f;" horiz-adv-x="1052" 
d="M517 1014q189 0 313 -83t116 -233h-270q-2 51 -45 76t-107 25t-109 -28q-44 -28 -44 -69q1 -41 25 -61q24 -19 50 -25t159 -22q134 -16 214 -47q164 -70 160 -250q-4 -139 -95 -216t-237 -99l-20 -80q90 -10 125 -70t10 -137q-25 -78 -106 -111q-81 -34 -172 -22t-158 55
l14 141q41 -34 115 -34t92 45q14 43 -29 65t-94 21l31 122q-373 31 -381 324h286q2 -57 50 -88t112 -29q168 0 170 113q0 57 -38 72t-103 26q-229 31 -313 72q-144 69 -144 225t117 239t306 83z" />
    <glyph glyph-name="Scaron" unicode="&#x160;" horiz-adv-x="1327" 
d="M231 1917h279l158 -160l153 160h283v-27l-293 -303h-289l-291 303v27zM86 424h293q4 -92 89 -139t200 -47q274 0 274 180q0 47 -21 82q-22 35 -49 52q-65 41 -243 54q-522 45 -523 408q0 223 156 337q156 113 381 113t381 -96q80 -49 127 -136t47 -202h-287
q-12 82 -86 124t-173 42t-172 -48q-72 -48 -72 -131t70 -119t202 -49q131 -13 220 -33t174 -66q85 -45 128 -128t43 -204t-49 -211t-134 -139q-165 -95 -392 -99q-238 0 -411 118t-173 337z" />
    <glyph glyph-name="scaron" unicode="&#x161;" horiz-adv-x="1048" 
d="M135 1446h254l141 -146l140 146h256v-25l-264 -272h-263l-264 272v25zM515 1014q189 0 313 -83t116 -233h-270q-2 51 -45 76t-107 25t-109 -28q-44 -28 -44 -69q1 -41 25 -61q24 -19 50 -25t159 -22q134 -16 214 -47q164 -70 160 -250q-2 -113 -69 -187
q-123 -136 -376 -137q-448 0 -460 328h286q2 -57 50 -88t112 -29q168 0 170 113q0 57 -38 72t-103 26q-229 31 -313 72q-144 69 -144 225t117 239t306 83z" />
    <glyph glyph-name="Tcommaaccent" unicode="&#x162;" 
d="M418 1163h-377v271h1046v-271h-372v-1163h-47l-27 -113q98 -11 135 -77q38 -66 14 -144t-82 -116q-106 -70 -274 -31q-74 16 -131 51l16 158q45 -37 127 -38t103 48q14 51 -33 74t-104 22l43 166h-37v1163z" />
    <glyph glyph-name="tcommaaccent" unicode="&#x163;" horiz-adv-x="923" 
d="M510 1292v-307h321v-203h-321v-387q0 -98 52 -147t128 -46t162 29l27 -217q-115 -31 -217 -37l-23 -90q98 -11 135 -77q38 -66 14 -144t-82 -116q-106 -70 -274 -31q-74 16 -131 51l16 158q45 -37 127 -38t103 48q14 51 -33 74t-104 22l43 168q-223 76 -224 387v393
l-186 19v184h186l31 307h250z" />
    <glyph glyph-name="Tcaron" unicode="&#x164;" horiz-adv-x="1134" 
d="M129 1886h279l157 -160l154 160h282v-26l-292 -304h-289l-291 304v26zM420 1167h-383v267h1061v-267h-381v-1167h-297v1167z" />
    <glyph glyph-name="tcaron" unicode="&#x165;" horiz-adv-x="991" 
d="M905 1309q115 0 150 -101q19 -51 -6 -110l-78 -242h-158l45 164q-49 12 -80 49q-30 37 -30 97t44 102q44 41 113 41zM510 1292v-307h217v-215h-217v-383q0 -96 50 -144t124 -43t160 31l26 -217q-270 -75 -447 -5q-91 36 -142 130t-52 242v389l-186 18v197h207l31 307h229
z" />
    <glyph glyph-name="Tbar" unicode="&#x166;" horiz-adv-x="1134" 
d="M225 530v228h195v405h-377v271h1047v-271h-373v-405h184v-228h-184v-530h-297v530h-195z" />
    <glyph glyph-name="tbar" unicode="&#x167;" horiz-adv-x="925" 
d="M514 1292v-307h322v-203h-322v-182h182v-194h-182v-27q0 -74 30 -118t81 -55q102 -22 231 25l27 -217q-489 -134 -615 157q-35 83 -35 202v33h-147v194h147v182q-12 2 -186 19v184h186l31 307h250z" />
    <glyph glyph-name="Utilde" unicode="&#x168;" horiz-adv-x="1447" 
d="M492 1577l-154 74q127 317 405 176q166 -92 213 26l150 -69q-44 -142 -150 -196t-235 9q-55 29 -87 41t-74 2t-68 -63zM727 -18q-241 0 -407 132t-166 363v957h307v-951q0 -111 77 -171q78 -60 190 -60t188 60t75 171v951h303v-957q0 -231 -164 -363t-403 -132z" />
    <glyph glyph-name="utilde" unicode="&#x169;" horiz-adv-x="1239" 
d="M381 1186q-25 12 -148 71q119 305 394 170q162 -90 207 27l143 -68q-37 -137 -145 -190t-228 10q-100 47 -137 47q-53 -4 -86 -67zM784 987h287v-690q0 -75 15 -99t77 -20l2 -178q-123 -29 -230 -13q-58 9 -94 49t-36 107q-39 -81 -126 -119t-190 -38q-367 0 -366 436
v565h289v-565q-4 -100 44 -156t131 -56q83 -1 140 59t57 159v559z" />
    <glyph glyph-name="Umacron" unicode="&#x16a;" horiz-adv-x="1447" 
d="M393 1575v219h656v-219h-656zM727 -18q-241 0 -407 132t-166 363v957h307v-951q0 -111 77 -171q78 -60 190 -60t188 60t75 171v951h303v-957q0 -231 -164 -363t-403 -132z" />
    <glyph glyph-name="umacron" unicode="&#x16b;" horiz-adv-x="1239" 
d="M268 1171v220h656v-220h-656zM784 987h287v-690q0 -75 15 -99t77 -20l2 -178q-123 -29 -230 -13q-58 9 -94 49t-36 107q-39 -81 -126 -119t-190 -38q-367 0 -366 436v565h289v-565q-4 -100 44 -156t131 -56q83 -1 140 59t57 159v559z" />
    <glyph glyph-name="Ubreve" unicode="&#x16c;" horiz-adv-x="1447" 
d="M309 1925h252q0 -61 53 -97q54 -36 116 -36t116 36q53 36 53 97h248q0 -98 -46 -176t-120 -118t-164 -58t-179 1t-163 59t-120 117t-46 175zM727 -18q-241 0 -407 132t-166 363v957h307v-951q0 -111 77 -171q78 -60 190 -60t188 60t75 171v951h303v-957q0 -231 -164 -363
t-403 -132z" />
    <glyph glyph-name="ubreve" unicode="&#x16d;" horiz-adv-x="1239" 
d="M199 1454h235q0 -57 49 -91t107 -34t108 34q49 34 50 91h231q0 -106 -57 -185q-56 -79 -144 -114t-189 -34t-189 36t-144 113q-57 78 -57 184zM784 987h287v-690q0 -75 15 -99t77 -20l2 -178q-123 -29 -230 -13q-58 9 -94 49t-36 107q-39 -81 -126 -119t-190 -38
q-367 0 -366 436v565h289v-565q-4 -100 44 -156t131 -56q83 -1 140 59t57 159v559z" />
    <glyph glyph-name="Uring" unicode="&#x16e;" horiz-adv-x="1447" 
d="M621 1743q0 -51 52 -76t103 0t51 76t-32 76q-70 53 -142 0q-32 -25 -32 -76zM983 1749q0 -115 -81 -179t-179 -65q-98 0 -179 65q-81 66 -81 180t81 178t179 65q98 -1 179 -65t81 -179zM727 -18q-241 0 -407 132t-166 363v957h307v-951q0 -111 77 -171q78 -60 190 -60
t188 60t75 171v951h303v-957q0 -231 -164 -363t-403 -132z" />
    <glyph glyph-name="uring" unicode="&#x16f;" horiz-adv-x="1239" 
d="M498 1315q0 -53 50 -76t101 0t51 76t-51 76t-101 0t-50 -76zM852 1326q0 -192 -200 -232q-97 -22 -208 36q-100 56 -100 196q0 73 52 131t127 72q185 33 277 -71q52 -60 52 -132zM784 987h287v-690q0 -75 15 -99t77 -20l2 -178q-123 -29 -230 -13q-58 9 -94 49t-36 107
q-39 -81 -126 -119t-190 -38q-367 0 -366 436v565h289v-565q-4 -100 44 -156t131 -56q83 -1 140 59t57 159v559z" />
    <glyph glyph-name="Uhungarumlaut" unicode="&#x170;" horiz-adv-x="1447" 
d="M823 1591v25l113 285l254 -70v-25l-143 -215h-224zM381 1591v25l115 307l256 -57v-23l-146 -252h-225zM727 -18q-241 0 -407 132t-166 363v957h307v-951q0 -111 77 -171q78 -60 190 -60t188 60t75 171v951h303v-957q0 -231 -164 -363t-403 -132z" />
    <glyph glyph-name="uhungarumlaut" unicode="&#x171;" horiz-adv-x="1239" 
d="M692 1174v24l107 268l239 -65v-23l-135 -204h-211zM274 1174v24l109 289l242 -53v-21l-138 -239h-213zM784 987h287v-690q0 -75 15 -99t77 -20l2 -178q-123 -29 -230 -13q-58 9 -94 49t-36 107q-39 -81 -126 -119t-190 -38q-367 0 -366 436v565h289v-565q-4 -100 44 -156
t131 -56q83 -1 140 59t57 159v559z" />
    <glyph glyph-name="Uogonek" unicode="&#x172;" horiz-adv-x="1449" 
d="M727 -18q-241 0 -407 132t-166 363v957h307v-951q0 -111 76 -171q75 -60 189 -60t190 60t75 171v951h303v-957q0 -303 -280 -438q-52 -41 -72 -95t4 -108q25 -45 79 -51q86 -10 187 57l41 -180q-124 -82 -294 -82q-79 0 -145 43t-87 127q-35 123 47 236q-29 -4 -47 -4z
" />
    <glyph glyph-name="uogonek" unicode="&#x173;" horiz-adv-x="1236" 
d="M784 987h287v-732q0 -36 3 -45l7 -21q3 -11 11 -15t17 -9t23 -5h31l2 -160q-106 -18 -159 -20q-46 -38 -64 -88t4 -101q23 -41 72 -46q83 -9 176 54l37 -170q-116 -78 -270 -69q-72 4 -132 46q-59 42 -79 122q-27 80 7 152t103 126q-68 39 -67 135v23q-41 -84 -124 -131
t-186 -47q-210 0 -288 135q-72 122 -72 321v545h289v-545q-4 -111 40 -171t131 -61t144 59t57 159v559z" />
    <glyph glyph-name="Wcircumflex" unicode="&#x174;" horiz-adv-x="1986" 
d="M1427 1556h-272l-162 160l-159 -160h-277v29l293 303h287l290 -305v-27zM1956 1434v-45l-494 -1401h-182l-285 774h-6l-276 -774h-189l-495 1401v45h321l146 -439l129 -475h6l299 889h125l309 -889h6l121 477l143 437h322z" />
    <glyph glyph-name="wcircumflex" unicode="&#x175;" horiz-adv-x="1574" 
d="M1196 1151h-258l-154 152l-149 -152h-262v27l276 286h273l274 -288v-25zM25 987h305l104 -289l76 -225h4l221 492h109l223 -492h6l170 514h309v-33l-409 -968h-109l-123 241l-123 260l-118 -268l-113 -233h-127l-405 968v33z" />
    <glyph glyph-name="Ycircumflex" unicode="&#x176;" horiz-adv-x="1300" 
d="M1077 1569h-272l-162 160l-160 -160h-276v28l293 304h286l291 -306v-26zM1296 1434v-45l-491 -816v-573h-307v573l-494 816v45h330l178 -306l135 -274h10l142 285l172 295h325z" />
    <glyph glyph-name="ycircumflex" unicode="&#x177;" horiz-adv-x="1144" 
d="M1008 1147h-273l-162 160l-159 -160h-277v29l293 303h287l291 -305v-27zM14 987h301l134 -334l129 -364h6l112 362l119 336h291v-33l-418 -1050q-81 -205 -166 -302q-51 -58 -111 -82q-131 -52 -335 23l30 199q123 -49 191 -11t113 165l36 102l-432 956v33z" />
    <glyph glyph-name="Ydieresis" unicode="&#x178;" horiz-adv-x="1300" 
d="M543 1710q0 -66 -47 -106t-116 -41q-69 0 -116 41q-47 40 -47 106t47 107t116 41t116 -41t47 -107zM924 1563q-70 0 -116 41q-46 40 -46 106t46 107t116 41t116 -41t45 -107q1 -66 -45 -106t-116 -41zM1296 1434v-45l-491 -816v-573h-307v573l-494 816v45h330l178 -306
l135 -274h10l142 285l172 295h325z" />
    <glyph glyph-name="Zacute" unicode="&#x179;" horiz-adv-x="1239" 
d="M498 1595v27l153 320l262 -97v-24l-182 -226h-233zM1159 1434v-45l-649 -1115h655v-274h-1120v43l657 1122h-600v269h1057z" />
    <glyph glyph-name="zacute" unicode="&#x17a;" horiz-adv-x="980" 
d="M360 1153v27l146 299l246 -90v-23l-172 -213h-220zM903 987v-33l-430 -706h430v-248h-844v33l437 717h-406v237h813z" />
    <glyph glyph-name="Zdotaccent" unicode="&#x17b;" horiz-adv-x="1239" 
d="M803 1716q0 -72 -48 -114t-121 -41q-73 0 -121 43q-48 42 -48 112t48 114t121 44t121 -43t48 -115zM1159 1434v-45l-649 -1115h655v-274h-1120v43l657 1122h-600v269h1057z" />
    <glyph glyph-name="zdotaccent" unicode="&#x17c;" horiz-adv-x="980" 
d="M670 1285q0 -67 -47 -107t-116 -41q-69 0 -115 41q-46 42 -46 108t46 108t115 42t116 -42t47 -109zM903 987v-33l-430 -706h430v-248h-844v33l437 717h-406v237h813z" />
    <glyph glyph-name="Zcaron" unicode="&#x17d;" horiz-adv-x="1239" 
d="M213 1907h279l157 -160l154 160h282v-27l-292 -303h-289l-291 303v27zM1159 1434v-45l-649 -1115h655v-274h-1120v43l657 1122h-600v269h1057z" />
    <glyph glyph-name="zcaron" unicode="&#x17e;" horiz-adv-x="980" 
d="M129 1450h238l133 -137l131 137h239v-23l-247 -258h-246l-248 258v23zM903 987v-33l-430 -706h430v-248h-844v33l437 717h-406v237h813z" />
    <glyph glyph-name="longs" unicode="&#x17f;" horiz-adv-x="700" 
d="M225 0v784h-182v203h188v117q-1 145 51 239q92 169 341 162q109 -2 235 -41l-29 -213q-117 46 -217 23t-100 -176v-1098h-287z" />
    <glyph glyph-name="florin" unicode="&#x192;" horiz-adv-x="1142" 
d="M428 -59v655h-297v205h297l-2 207q0 108 16 182q20 112 80 180t148 90q172 44 403 -22l-29 -213q-116 45 -221 23q-51 -11 -81 -57t-29 -122v-268h307v-205h-307l-2 -662q1 -145 -53 -238t-146 -128q-184 -70 -438 10l26 213q183 -69 275 7q53 44 53 143z" />
    <glyph glyph-name="Aringacute" unicode="&#x1fa;" horiz-adv-x="1439" 
d="M596 1759v21l168 245l256 -53v-18l-197 -195h-227zM-8 0v41l600 1278q-133 57 -133 186q0 101 82 157t179 56t179 -56t82 -157q0 -129 -131 -184l598 -1280v-41h-318l-112 238h-596l-111 -238h-319zM725 938h-10l-193 -442h398zM618 1504q0 -38 33 -60t71 -21q38 0 71 22
q33 21 33 59t-33 60q-70 48 -142 0q-33 -22 -33 -60z" />
    <glyph glyph-name="aringacute" unicode="&#x1fb;" 
d="M424 1583v21l166 245l284 -73v-19l-196 -174h-254zM659 1310q0 52 -53 74t-105 0t-52 -74t52 -75t105 0t53 75zM817 1309q0 -81 -54 -139t-132 -71t-156 0t-132 70t-54 139t54 140q54 56 132 70q192 33 288 -70q54 -57 54 -139zM705 354v52q-84 57 -205 57
q-72 -4 -117 -44q-45 -41 -39 -101t45 -88t105 -28t136 40q69 40 75 112zM406 -18q-125 0 -231 85q-105 85 -109 224q-8 174 100 265q109 91 277 91t268 -63v67q0 141 -246 142q-178 0 -285 -60l-37 205q156 74 371 74q471 0 471 -369v-356q0 -68 9 -93q8 -24 28 -30t55 -4
l2 -160q-77 -14 -147 -14t-118 42t-48 124q-41 -86 -138 -128t-222 -42z" />
    <glyph glyph-name="AEacute" unicode="&#x1fc;" horiz-adv-x="1687" 
d="M868 1567v26l154 320l262 -96v-25l-182 -225h-234zM807 1167l-272 -571h264l12 571h-4zM-10 0v45l667 1385h902v-263h-498v-297h465v-254h-465v-354h520v-262h-782v346h-359l-155 -346h-295z" />
    <glyph glyph-name="aeacute" unicode="&#x1fd;" horiz-adv-x="1650" 
d="M719 1153v25l147 303l248 -90v-25l-172 -213h-223zM1313 621q4 77 -44 121t-124 46t-132 -43t-73 -124h373zM416 -20q-141 0 -245 83q-103 84 -107 229q-4 146 75 234q111 123 330 115q143 -10 229 -63v55q0 84 -77 122q-78 38 -200 38t-245 -64l-35 201q150 78 361 78
q276 0 334 -181q41 85 130 133t193 48q248 0 349 -167t44 -409h-618q12 -233 244 -237q82 -4 176 15t157 48l35 -197q-199 -86 -370 -86q-256 0 -369 189q-151 -184 -391 -184zM702 348l-6 53q-102 68 -202 58q-70 -2 -114 -43q-44 -42 -39 -102t43 -88t102 -28t134 40
t82 110z" />
    <glyph glyph-name="Oslashacute" unicode="&#x1fe;" horiz-adv-x="1630" 
d="M682 1616v26l154 320l262 -96v-25l-183 -225h-233zM393 724q0 -200 115 -314l436 733q-63 23 -127 22q-176 0 -300 -121q-124 -120 -124 -320zM1239 704q0 192 -104 304l-428 -721q49 -20 112 -21q174 0 297 123t123 315zM1544 717q0 -231 -105 -405t-269 -255
q-164 -82 -357 -82q-133 0 -250 45l-86 -143h-143q-143 -2 -144 0v31l144 239q-248 207 -248 570q0 231 105 403t269 254t334 82q168 0 293 -49l82 141h289v-28l-147 -246q233 -207 233 -557z" />
    <glyph glyph-name="oslashacute" unicode="&#x1ff;" horiz-adv-x="1196" 
d="M467 1180v24l145 303l246 -92v-22l-172 -213h-219zM850 498q0 98 -62 168l-225 -441q109 -18 198 56t89 217zM350 514q0 -129 68 -192l225 446q-111 23 -202 -51t-91 -203zM1122 498q0 -145 -61 -259t-157 -171t-213 -81q-118 -24 -228 11l-55 -113h-224l99 193
q-207 137 -207 420q0 196 106 326t258 170t308 1l59 119h223l-102 -205q194 -143 194 -411z" />
    <glyph glyph-name="Scommaaccent" unicode="&#x218;" horiz-adv-x="1327" 
d="M86 424h293q4 -92 89 -139t200 -47q274 0 274 180q0 47 -21 82q-22 35 -49 52q-65 41 -243 54q-522 45 -523 408q0 223 156 337q156 113 381 113t381 -96q80 -49 127 -136t47 -202h-287q-12 82 -86 124t-173 42t-172 -48q-72 -48 -72 -131t70 -119t202 -49
q131 -13 220 -33t174 -66q85 -45 128 -128t43 -204t-49 -211t-134 -139q-165 -95 -392 -99q-238 0 -411 118t-173 337zM874 -276q0 -35 -14 -64l-82 -227h-166l50 145q-117 39 -117 150q0 70 46 112q45 42 109 41q64 0 107 -28q67 -45 67 -129z" />
    <glyph glyph-name="scommaaccent" unicode="&#x219;" horiz-adv-x="1048" 
d="M515 1014q189 0 313 -83t116 -233h-270q-2 51 -45 76t-107 25t-109 -28q-44 -28 -44 -69q1 -41 25 -61q24 -19 50 -25t159 -22q134 -16 214 -47q164 -70 160 -250q-2 -113 -69 -187q-123 -136 -376 -137q-448 0 -460 328h286q2 -57 50 -88t112 -29q168 0 170 113
q0 57 -38 72t-103 26q-229 31 -313 72q-144 69 -144 225t117 239t306 83zM713 -290q0 -32 -15 -62l-77 -215h-158l47 137q-111 39 -111 143q0 66 44 106t112 40q113 0 150 -99q8 -18 8 -50z" />
    <glyph glyph-name="uni021A" unicode="&#x21a;" horiz-adv-x="1134" 
d="M420 1167h-383v267h1061v-267h-381v-1167h-297v1167zM750 -256q0 -35 -15 -63l-82 -228h-166l50 146q-117 39 -117 149q0 70 46 112t110 42t106 -29q68 -46 68 -129z" />
    <glyph glyph-name="uni021B" unicode="&#x21b;" horiz-adv-x="921" 
d="M510 1292v-307h321v-215h-321v-383q0 -96 50 -144t124 -43t160 31l26 -217q-270 -75 -447 -5q-91 36 -142 130t-52 242v389l-186 18v197h207l31 307h229zM711 -290q0 -28 -15 -58l-73 -211h-154l45 133q-109 39 -108 141q0 63 43 103t108 39q115 0 145 -97q9 -22 9 -50z
" />
    <glyph glyph-name="circumflex" unicode="&#x2c6;" horiz-adv-x="1011" 
d="M965 1106h-273l-162 160l-159 -160h-277v29l293 303h287l291 -305v-27z" />
    <glyph glyph-name="caron" unicode="&#x2c7;" horiz-adv-x="1087" 
d="M104 1436h279l158 -160l153 160h283v-27l-293 -303h-289l-291 303v27z" />
    <glyph glyph-name="breve" unicode="&#x2d8;" horiz-adv-x="1083" 
d="M117 1436h252q0 -62 53 -98q54 -36 116 -36t115 36t54 98h247q0 -98 -46 -176q-79 -133 -283 -177q-172 -34 -342 61q-74 40 -120 117t-46 175z" />
    <glyph glyph-name="dotaccent" unicode="&#x2d9;" horiz-adv-x="657" 
d="M469 1298q0 -72 -48 -114t-121 -41q-73 0 -121 43q-48 42 -48 112t48 114t121 44t121 -43t48 -115z" />
    <glyph glyph-name="ring" unicode="&#x2da;" horiz-adv-x="776" 
d="M384 1346q-38 0 -70 -25t-33 -76q0 -51 52 -76t103 0t51 76t-32 76q-33 25 -71 25zM643 1251q0 -115 -81 -179t-179 -64t-179 64t-81 180q0 114 81 179t179 65t179 -66q81 -64 81 -179z" />
    <glyph glyph-name="ogonek" unicode="&#x2db;" horiz-adv-x="745" 
d="M258 18h205q-72 -36 -111 -106t-10 -122t83 -57q88 -8 189 58l39 -182q-82 -53 -187 -71t-204 23q-98 42 -129 154q-51 168 125 303z" />
    <glyph glyph-name="tilde" unicode="&#x2dc;" horiz-adv-x="960" 
d="M248 1174l-154 73q127 317 406 176q166 -92 213 27l149 -70q-43 -141 -149 -195t-236 9q-55 29 -87 41t-74 2t-68 -63z" />
    <glyph glyph-name="hungarumlaut" unicode="&#x2dd;" horiz-adv-x="1060" 
d="M582 1128v25l112 285l254 -70v-25l-143 -215h-223zM139 1128v25l115 307l256 -57v-23l-145 -252h-226z" />
    <glyph glyph-name="afii10023" unicode="&#x401;" horiz-adv-x="1171" 
d="M498 1706q0 -66 -47 -106t-116 -41q-69 1 -116 41t-47 106t47 106t116 41q69 0 116 -41q47 -40 47 -106zM879 1559q-70 1 -116 41t-46 106t46 106t116 41q69 0 115 -41q46 -40 46 -106t-46 -106t-115 -41zM1044 1434v-269h-569v-291h533v-268h-533v-327h586v-279h-895
v1434h878z" />
    <glyph glyph-name="afii10051" unicode="&#x402;" horiz-adv-x="1550" 
d="M1473 180q0 -258 -126 -350t-366 -47l10 211q119 -14 157 26t38 162v326q0 98 -64 154t-158 57q-95 2 -174 -69t-83 -163v-487h-297v1167h-371v267h1126v-267h-458v-368q59 84 154 122t198 33q170 -4 292 -128t122 -318v-328z" />
    <glyph glyph-name="afii10052" unicode="&#x403;" horiz-adv-x="1069" 
d="M467 1565v26l186 328l258 -94v-27l-215 -233h-229zM1038 1165h-567v-1165h-305v1434h872v-269z" />
    <glyph glyph-name="afii10053" unicode="&#x404;" horiz-adv-x="1556" 
d="M932 850v-262h-520q28 -152 140 -241t257 -89t246 68q100 68 137 192h297q-29 -180 -134 -304q-195 -230 -536 -230q-295 0 -508 186q-102 90 -164 231q-61 141 -61 315t59 315q112 270 390 373q129 48 272 48q240 0 429 -132t237 -382h-297q-93 238 -369 238
q-159 2 -269 -85t-130 -241h524z" />
    <glyph glyph-name="afii10054" unicode="&#x405;" horiz-adv-x="1327" 
d="M86 424h293q4 -92 89 -139t200 -47q274 0 274 180q0 47 -21 82q-22 35 -49 52q-65 41 -243 54q-522 45 -523 408q0 223 156 337q156 113 381 113t381 -96q80 -49 127 -136t47 -202h-287q-12 82 -86 124t-173 42t-172 -48q-72 -48 -72 -131t70 -119t202 -49
q131 -13 220 -33t174 -66q85 -45 128 -128t43 -204t-49 -211t-134 -139q-165 -95 -392 -99q-238 0 -411 118t-173 337z" />
    <glyph glyph-name="afii10055" unicode="&#x406;" horiz-adv-x="897" 
d="M602 244h203v-244h-713v244h203v952h-186v238h679v-238h-186v-952z" />
    <glyph glyph-name="afii10056" unicode="&#x407;" horiz-adv-x="897" 
d="M350 1712q0 -66 -47 -106t-116 -41q-69 0 -115 41q-46 40 -47 106q0 66 47 107q48 41 116 41t115 -41t47 -107zM731 1565q-70 0 -116 41q-46 40 -46 106t46 107t116 41t116 -41t46 -107t-46 -106t-116 -41zM602 244h203v-244h-713v244h203v952h-186v238h679v-238h-186
v-952z" />
    <glyph glyph-name="afii10057" unicode="&#x408;" horiz-adv-x="1290" 
d="M1137 1434v-959q0 -225 -159 -360t-389 -135t-383 134t-153 361v174h285v-168q0 -113 69 -171t181 -58t176 59q66 59 65 170v688h-256v265h564z" />
    <glyph glyph-name="afii10058" unicode="&#x409;" horiz-adv-x="2041" 
d="M1237 985h250q242 1 373 -151t131 -363q-1 -211 -141 -341t-367 -130h-537v1159h-309q-37 -355 -66 -710q-29 -299 -139 -392q-111 -92 -401 -51l6 221q131 -16 172 35t57 199l103 973h868v-449zM1702 467q0 145 -77 197t-228 51h-160v-445l195 -2q110 0 190 51t80 148z
" />
    <glyph glyph-name="afii10059" unicode="&#x40a;" horiz-adv-x="2041" 
d="M1479 664h-244v-394q121 -2 237 0t174 67t48 150t-68 131t-147 46zM1235 1434v-498h248q240 0 375 -130t134 -337q0 -207 -136 -338t-377 -131h-543v645h-465v-645h-305v1434h305v-508h465v508h299z" />
    <glyph glyph-name="afii10060" unicode="&#x40b;" horiz-adv-x="1554" 
d="M1473 0h-287v508q0 98 -64 154t-158 57q-95 2 -174 -69t-83 -165v-485h-297v1167h-371v267h1126v-267h-458v-379q39 86 139 132t209 45q203 0 311 -128t107 -329v-508z" />
    <glyph glyph-name="afii10061" unicode="&#x40c;" horiz-adv-x="1439" 
d="M592 1565v26l186 328l256 -94v-27l-213 -233h-229zM473 0h-307v1434h307v-592q193 0 248 28q51 29 80 99t63 211q88 330 488 252v-209q-86 8 -135 -23t-70 -110q-80 -279 -182 -381l440 -664v-45h-348l-361 590q-51 -14 -223 -15v-575z" />
    <glyph glyph-name="afii10062" unicode="&#x40e;" horiz-adv-x="1306" 
d="M14 1434h338l326 -633h10l291 633h326v-31l-541 -1094q-52 -117 -106 -189t-130 -117q-148 -86 -407 11l41 238q104 -46 176 -22t121 130l61 129l-506 906v39zM668 1761q138 0 161 129q76 -4 205 -18q-10 -160 -103 -252t-259 -92t-262 92t-103 252l207 18
q16 -129 154 -129z" />
    <glyph glyph-name="afii10145" unicode="&#x40f;" horiz-adv-x="1492" 
d="M604 -276v276h-438v1434h307v-1155h549v1155h305v-1434h-428v-276h-295z" />
    <glyph glyph-name="afii10017" unicode="&#x410;" horiz-adv-x="1433" 
d="M717 969l-199 -473h397zM-12 0v41l659 1405h141l656 -1405v-41h-318l-112 238h-596l-111 -238h-319z" />
    <glyph glyph-name="afii10018" unicode="&#x411;" horiz-adv-x="1355" 
d="M467 1165v-264h311q246 0 377 -123q131 -124 131 -320t-132 -327t-376 -131h-612v1434h1003v-269h-702zM776 645h-309v-377h309q100 0 156 56t55 135q0 80 -55 133q-56 53 -156 53z" />
    <glyph glyph-name="afii10019" unicode="&#x412;" horiz-adv-x="1376" 
d="M799 594h-326v-328h340q164 0 172 168q4 84 -63 131q-41 29 -123 29zM754 1169h-281v-325h281q78 0 124 41t48 115t-45 122q-47 47 -127 47zM1227 1008q0 -80 -38 -152t-106 -113q205 -86 205 -319q0 -192 -121 -308t-333 -116h-666v1432h608q201 0 326 -114t125 -310z
" />
    <glyph glyph-name="afii10020" unicode="&#x413;" horiz-adv-x="1071" 
d="M1038 1157h-567v-1157h-305v1434h872v-277z" />
    <glyph glyph-name="afii10021" unicode="&#x414;" horiz-adv-x="1531" 
d="M41 260h49q88 2 120 46t44 155l113 973h933v-1174h154v-463h-274v203h-850v-203h-289v463zM999 254v915h-366l-76 -720q-14 -139 -96 -195h538z" />
    <glyph glyph-name="afii10022" unicode="&#x415;" horiz-adv-x="1171" 
d="M1044 1434v-269h-569v-291h533v-268h-533v-327h586v-279h-895v1434h878z" />
    <glyph glyph-name="afii10024" unicode="&#x416;" horiz-adv-x="2105" 
d="M2066 0h-346l-360 588q-80 -18 -156 -19v-569h-303v569q-76 0 -156 19l-360 -588h-346v45l440 664q-100 96 -172 387q-43 154 -217 127v207q416 88 490 -252q51 -246 151 -301q53 -33 170 -33v590h303v-590q119 0 167 29t82 88t46 103t29 114q72 340 487 252v-207
q-172 27 -217 -127q-39 -148 -75 -238t-95 -149l438 -664v-45z" />
    <glyph glyph-name="afii10025" unicode="&#x417;" horiz-adv-x="1216" 
d="M389 1081h-270q-8 185 126 283t343 98t338 -114t129 -291q0 -86 -44 -160t-120 -119q242 -111 242 -362q-1 -201 -147 -323t-395 -122t-388 122t-140 360h277q0 -103 69 -165t175 -62t174 58q66 58 66 148t-69 149q-69 58 -175 58h-107v246h105q82 0 136 48t54 122
t-55 119t-133 45t-134 -36t-57 -102z" />
    <glyph glyph-name="afii10026" unicode="&#x418;" horiz-adv-x="1540" 
d="M166 -4v1438h307v-813l805 819h96v-1440h-305v819l-811 -823h-92z" />
    <glyph glyph-name="afii10027" unicode="&#x419;" horiz-adv-x="1540" 
d="M166 -4v1438h307v-813l805 819h96v-1440h-305v819l-811 -823h-92zM830 1761q138 0 161 129q76 -4 205 -18q-10 -160 -103 -252t-259 -92t-262 92q-95 92 -103 252l207 18q16 -129 154 -129z" />
    <glyph glyph-name="afii10028" unicode="&#x41a;" horiz-adv-x="1439" 
d="M471 1434v-592q195 0 248 26q51 29 80 98t63 214q92 334 490 252v-209q-88 8 -136 -23t-71 -110q-72 -272 -180 -381l438 -664v-45h-346l-361 590q-55 -14 -225 -15v-575h-305v1434h305z" />
    <glyph glyph-name="afii10029" unicode="&#x41b;" horiz-adv-x="1499" 
d="M1333 1434v-1434h-305v1159h-391l-70 -747q-27 -279 -139 -363t-397 -43l6 221q125 -12 168 29t57 166l107 1012h964z" />
    <glyph glyph-name="afii10030" unicode="&#x41c;" horiz-adv-x="1705" 
d="M1540 1438v-1438h-307v776l-361 -450h-38l-361 450v-776h-307v1438h113l575 -682l576 682h110z" />
    <glyph glyph-name="afii10031" unicode="&#x41d;" horiz-adv-x="1492" 
d="M1327 0h-307v606h-549v-606h-305v1434h305v-547h549v547h307v-1434z" />
    <glyph glyph-name="afii10032" unicode="&#x41e;" horiz-adv-x="1636" 
d="M395 714q0 -220 121 -339t302 -119t304 119t123 339t-123 340t-302 120t-302 -120t-123 -340zM1550 717q0 -328 -204 -535t-520 -207t-528 198t-212 544q0 231 105 403t271 254t334 82t298 -49q284 -107 396 -373q60 -143 60 -317z" />
    <glyph glyph-name="afii10033" unicode="&#x41f;" horiz-adv-x="1492" 
d="M166 1434h1161v-1434h-307v1155h-547v-1155h-307v1434z" />
    <glyph glyph-name="afii10034" unicode="&#x420;" horiz-adv-x="1341" 
d="M469 670h311q96 0 157 72q60 72 60 178t-59 177t-158 70h-311v-497zM475 2h-307v1434h612q238 0 374 -154t136 -367t-137 -360t-373 -147h-305v-406z" />
    <glyph glyph-name="afii10035" unicode="&#x421;" horiz-adv-x="1558" 
d="M86 715q0 341 217 539t516 194q238 0 426 -130t236 -380h-297q-92 233 -365 233q-190 1 -307 -125t-117 -322t117 -328t305 -132q137 0 238 66q100 66 135 192h295q-43 -266 -231 -401t-435 -135q-294 0 -508 185q-101 89 -163 231t-62 313z" />
    <glyph glyph-name="afii10036" unicode="&#x422;" horiz-adv-x="1134" 
d="M420 1167h-383v267h1061v-267h-381v-1167h-297v1167z" />
    <glyph glyph-name="afii10037" unicode="&#x423;" horiz-adv-x="1302" 
d="M12 1434h338l326 -633h10l291 633h326v-31l-541 -1094q-52 -117 -106 -191t-129 -121q-146 -93 -408 5l41 250q104 -46 176 -22t121 130l61 129l-506 906v39z" />
    <glyph glyph-name="afii10038" unicode="&#x424;" horiz-adv-x="1861" 
d="M788 -4v147q-413 13 -589 256q-97 131 -97 319t96 321q180 246 588 259v140h287v-140q295 -8 482 -140q95 -68 149 -180t53 -259q0 -147 -54 -259q-53 -112 -151 -178q-191 -130 -481 -139v-147h-283zM410 719q0 -299 381 -316v629q-381 -8 -381 -313zM1450 719
q0 305 -381 313v-629q381 17 381 316z" />
    <glyph glyph-name="afii10039" unicode="&#x425;" horiz-adv-x="1374" 
d="M1305 1434v-45l-433 -631l482 -715v-43h-322l-186 276l-154 269h-10l-158 -277l-178 -268h-326v43l484 715l-434 631v45h333l150 -236l131 -258h8l139 270l142 224h332z" />
    <glyph glyph-name="afii10040" unicode="&#x426;" horiz-adv-x="1542" 
d="M1198 0h-1032v1434h307v-1155h516v1155h309v-1174h172v-444h-272v184z" />
    <glyph glyph-name="afii10041" unicode="&#x427;" horiz-adv-x="1325" 
d="M1157 0h-303v512q-410 -51 -597 111t-187 591v218h309v-218q0 -280 98 -368t377 -49v635h303v-1432z" />
    <glyph glyph-name="afii10042" unicode="&#x428;" horiz-adv-x="2117" 
d="M166 0v1434h305v-1155h432v1155h307v-1155h435v1155h307v-1434h-1786z" />
    <glyph glyph-name="afii10043" unicode="&#x429;" horiz-adv-x="2187" 
d="M166 0v1434h309v-1155h426v1155h305v-1155h430v1155h306v-1174h174v-444h-271v184h-1679z" />
    <glyph glyph-name="afii10044" unicode="&#x42a;" horiz-adv-x="1443" 
d="M41 1176v258h534v-449h308q237 0 373 -143t136 -347q0 -203 -136 -349q-138 -146 -373 -146h-609v1176h-233zM881 715h-306v-445h306q100 0 158 66q57 66 57 159t-60 157t-155 63z" />
    <glyph glyph-name="afii10045" unicode="&#x42b;" horiz-adv-x="1959" 
d="M1794 1434v-1434h-305v1434h305zM772 715h-307v-445l256 -2q244 0 264 197q10 100 -49 175q-60 75 -164 75zM465 1434v-449h307q258 0 395 -168t111 -387q-23 -184 -157 -307t-349 -123h-606v1434h299z" />
    <glyph glyph-name="afii10046" unicode="&#x42c;" horiz-adv-x="1331" 
d="M772 715h-307v-445l210 -2q52 0 97 2q98 0 158 66q59 66 57 159q-3 93 -61 157t-154 63zM465 1434v-449h307q236 0 373 -143t137 -347q0 -203 -137 -349t-373 -146h-606v1434h299z" />
    <glyph glyph-name="afii10047" unicode="&#x42d;" horiz-adv-x="1556" 
d="M748 1452q294 0 502 -187q100 -91 160 -233t60 -316q0 -172 -61 -314t-163 -232q-212 -186 -509 -186q-340 0 -535 230q-105 124 -136 304h296q38 -124 138 -192t246 -68t259 89q112 89 138 241h-518v254h524q-19 154 -131 245t-270 89q-276 0 -369 -238h-297
q47 250 237 382t429 132z" />
    <glyph glyph-name="afii10048" unicode="&#x42e;" horiz-adv-x="2224" 
d="M1405 1165q-178 -1 -300 -121t-122 -329t124 -331t301 -122t300 122t123 331t-124 329t-302 121zM2138 715q0 -231 -105 -405t-269 -257q-164 -84 -359 -82q-274 4 -479 171t-240 458h-213v-600h-307v1434h307v-555h219q51 274 253 428t466 151q193 -2 355 -85t268 -255
q104 -172 104 -403z" />
    <glyph glyph-name="afii10049" unicode="&#x42f;" horiz-adv-x="1413" 
d="M637 727h307v440h-307q-95 0 -153 -62q-58 -61 -58 -155t58 -158t153 -65zM1247 1434v-1434h-307v475h-256l-295 -475h-326v45l322 477q-121 61 -187 173t-69 249q0 203 136 346t372 144h610z" />
    <glyph glyph-name="afii10065" unicode="&#x430;" horiz-adv-x="1134" 
d="M705 354v52q-84 57 -205 57q-72 -4 -117 -44q-45 -41 -39 -101t45 -88t105 -28t136 40q69 40 75 112zM406 -18q-125 0 -231 85q-105 85 -109 224q-8 174 100 265q109 91 277 91t268 -63v67q0 141 -246 142q-178 0 -285 -60l-37 205q156 74 371 74q471 0 471 -369v-356
q0 -68 9 -93q8 -24 28 -30t55 -4l2 -160q-77 -14 -147 -14t-118 42t-48 124q-41 -86 -138 -128t-222 -42z" />
    <glyph glyph-name="afii10066" unicode="&#x431;" horiz-adv-x="1226" 
d="M629 227q106 0 176 69q69 70 67 182t-72 182t-176 69q-105 0 -176 -72q-71 -73 -70 -185t73 -178t178 -67zM634 -20q-237 0 -366 120q-128 120 -158 328q-30 207 0 382t145 320q116 145 314 213q197 63 158 162h258q84 -229 -201 -354q-162 -67 -228 -95q-66 -29 -93 -64
q-58 -75 -82 -167q43 61 126 103t165 45q225 11 355 -139t123 -357t-143 -352t-373 -145z" />
    <glyph glyph-name="afii10067" unicode="&#x432;" horiz-adv-x="1099" 
d="M410 608h133q110 0 135 37q12 18 12 54t-24 59q-25 22 -53 26t-70 4h-133v-180zM410 213h151q139 0 167 43q15 23 15 71t-41 72q-29 21 -69 21h-223v-207zM971 725q0 -156 -135 -193q84 -28 134 -94t50 -154q0 -179 -141 -238q-117 -48 -287 -48h-459v993h393
q320 0 405 -121q40 -57 40 -145z" />
    <glyph glyph-name="afii10068" unicode="&#x433;" horiz-adv-x="903" 
d="M412 0h-279v987h723v-250h-444v-737z" />
    <glyph glyph-name="afii10069" unicode="&#x434;" horiz-adv-x="1255" 
d="M786 221v531h-241l-39 -320l-12 -76q-16 -98 -64 -135h356zM63 221q69 0 109 33q39 33 55 167q6 50 11 71l77 495h740v-766h131l-10 -434h-248v213h-627v-213h-248l-8 434h18z" />
    <glyph glyph-name="afii10070" unicode="&#x435;" horiz-adv-x="1126" 
d="M594 793q-88 -1 -152 -47t-80 -128h435q5 90 -55 132t-148 43zM592 1012q264 0 380 -160t58 -418h-670q14 -205 263 -223q208 -10 366 61l33 -209q-186 -88 -383 -88q-252 -5 -409 139q-156 144 -154 390t152 377q151 131 364 131z" />
    <glyph glyph-name="afii10072" unicode="&#x436;" horiz-adv-x="1626" 
d="M948 621h29q279 0 252 366h272q14 -170 -31 -293t-180 -192l281 -471v-31h-291l-223 412q-47 -14 -80 -15h-29v-397h-272v397h-27q-37 0 -80 15l-227 -412h-287v31l279 471q-133 70 -177 192t-32 293h268q-25 -367 256 -366h27v368h272v-368z" />
    <glyph glyph-name="afii10073" unicode="&#x437;" horiz-adv-x="1015" 
d="M887 735q0 -76 -40 -129t-114 -74q94 -27 152 -92q57 -66 57 -159q0 -160 -128 -234t-348 -74t-396 90l14 228q47 -29 161 -59t206 -31q188 0 188 110q0 77 -68 90q-57 13 -127 13h-157v196h143q47 0 75 4q27 4 53 24t26 62q0 92 -162 93q-70 -1 -162 -19t-147 -47
l-13 205q147 80 373 76q176 0 295 -65t119 -208z" />
    <glyph glyph-name="afii10074" unicode="&#x438;" horiz-adv-x="1210" 
d="M133 -2v989h277v-498l581 502h86v-991h-276v510l-594 -512h-74z" />
    <glyph glyph-name="afii10075" unicode="&#x439;" horiz-adv-x="1210" 
d="M133 -2v989h277v-498l581 502h86v-991h-276v510l-594 -512h-74zM646 1118q-146 0 -236 82t-97 227l176 19q11 -115 151 -117t161 117q92 -6 172 -19q-10 -145 -96 -227q-85 -82 -231 -82z" />
    <glyph glyph-name="afii10076" unicode="&#x43a;" horiz-adv-x="1150" 
d="M418 621h71q158 0 222 98q63 98 63 270h270q8 -365 -231 -493l279 -465v-29h-291l-232 404q-31 -10 -84 -11h-67v-393h-285v985h285v-366z" />
    <glyph glyph-name="afii10077" unicode="&#x43b;" horiz-adv-x="1243" 
d="M829 735h-276l-35 -360q-20 -258 -118 -334t-359 -41l8 207q111 -13 144 25t45 153l67 602h805v-987h-281v735z" />
    <glyph glyph-name="afii10078" unicode="&#x43c;" horiz-adv-x="1339" 
d="M408 4h-275v983h86l451 -452l452 452h84v-983h-272v449l-254 -248h-25l-247 248v-449z" />
    <glyph glyph-name="afii10079" unicode="&#x43d;" horiz-adv-x="1212" 
d="M803 987h276v-987h-276v389h-393v-389h-277v987h277v-352h393v352z" />
    <glyph glyph-name="afii10080" unicode="&#x43e;" horiz-adv-x="1193" 
d="M358 498q0 -127 70 -198t167 -72t169 71t72 198q0 127 -70 197t-167 70t-169 -70t-72 -196zM1120 498q0 -246 -154 -382t-367 -136q-212 0 -369 136q-156 136 -156 380t153 381q154 137 367 139q214 2 370 -135t156 -383z" />
    <glyph glyph-name="afii10081" unicode="&#x43f;" horiz-adv-x="1210" 
d="M133 987h944v-987h-284v735h-371v-735h-289v987z" />
    <glyph glyph-name="afii10082" unicode="&#x440;" horiz-adv-x="1239" 
d="M874 494q0 114 -56 192t-154 77t-152 -67q-55 -66 -57 -157v-258q232 -120 356 25q63 74 63 188zM719 1016q207 0 325 -151t119 -363q0 -143 -61 -261q-62 -119 -160 -181t-224 -74t-255 57v-549h-287v1218q0 64 -21 76q-7 4 -17 10t-23 5h-31l-2 190q117 25 190 8
q74 -17 105 -57t31 -108q39 88 124 134q86 46 187 46z" />
    <glyph glyph-name="afii10083" unicode="&#x441;" horiz-adv-x="1155" 
d="M358 496q0 -126 75 -198q75 -73 161 -73q174 0 225 154h273q-29 -189 -169 -293t-338 -106t-355 135q-156 137 -156 382t157 383t353 138t333 -102t170 -285h-272q-51 139 -222 135q-85 -2 -160 -73t-75 -197z" />
    <glyph glyph-name="afii10084" unicode="&#x442;" horiz-adv-x="954" 
d="M616 4h-278v733h-291v250h860v-250h-291v-733z" />
    <glyph glyph-name="afii10085" unicode="&#x443;" horiz-adv-x="1144" 
d="M14 987h308l260 -655h6l233 655h285v-33l-418 -1050q-86 -208 -182 -315t-251 -98q-81 5 -177 50l28 201q121 -49 190 -11t114 165l36 102l-432 956v33z" />
    <glyph glyph-name="afii10086" unicode="&#x444;" horiz-adv-x="1718" 
d="M367 495q0 -181 105 -243t255 29v430q-150 89 -255 27t-105 -243zM1352 495q0 181 -104 242t-253 -26v-430q147 -91 252 -29t105 243zM1001 -502h-282v547q-264 -125 -452 9q-187 134 -187 440t186 442q186 135 453 12v543h282v-543q265 123 451 -12t186 -441
q0 -307 -186 -441t-451 -9v-547z" />
    <glyph glyph-name="afii10087" unicode="&#x445;" horiz-adv-x="1077" 
d="M29 0v33l342 491l-293 432v31h274l88 -129l95 -166h6l92 168l86 127h293v-33l-303 -440l333 -481v-33h-276l-111 160l-110 188h-6l-117 -196l-107 -152h-286z" />
    <glyph glyph-name="afii10088" unicode="&#x446;" horiz-adv-x="1224" 
d="M903 0h-770v987h275v-735h344v735h274v-766h129l-16 -430h-236v209z" />
    <glyph glyph-name="afii10089" unicode="&#x447;" horiz-adv-x="1132" 
d="M721 987h278v-987h-284v322q-129 -51 -246 -42t-207 59t-142 159t-52 260v229h286v-229q-4 -115 56 -175q60 -61 147 -59q86 2 164 56v407z" />
    <glyph glyph-name="afii10090" unicode="&#x448;" horiz-adv-x="1687" 
d="M406 252h299v735h276v-735h299v735h274v-987h-1421v987h273v-735z" />
    <glyph glyph-name="afii10091" unicode="&#x449;" horiz-adv-x="1757" 
d="M410 252h299v735h274v-735h297v735h276v-766h130l-15 -432h-239v211h-1299v987h277v-735z" />
    <glyph glyph-name="afii10092" unicode="&#x44a;" horiz-adv-x="1179" 
d="M688 483h-158v-270h158q76 0 121 37t45 99t-44 98t-122 36zM692 0h-436v754h-211v233h485v-289h164q190 0 314 -86t122 -263q0 -177 -125 -263t-313 -86z" />
    <glyph glyph-name="afii10093" unicode="&#x44b;" horiz-adv-x="1579" 
d="M1180 0v985h266v-985h-266zM567 483h-159v-270h159q76 0 121 37t45 99t-44 98t-122 36zM571 0h-438v987h275v-289h163q193 0 316 -86t123 -263t-126 -263t-313 -86z" />
    <glyph glyph-name="afii10094" unicode="&#x44c;" horiz-adv-x="1060" 
d="M567 483h-159v-270h159q76 0 121 37t45 99t-44 98t-122 36zM571 0h-438v987h275v-289h163q193 0 316 -86t123 -263t-126 -263t-313 -86z" />
    <glyph glyph-name="afii10095" unicode="&#x44d;" horiz-adv-x="1167" 
d="M1092 492q0 -246 -154 -381t-358 -135t-348 104q-142 106 -171 299h275q24 -76 88 -116t146 -40t147 44q66 44 82 126h-318v199h318q-19 84 -79 127t-147 43q-182 -4 -233 -137l-272 2q33 186 175 285q141 98 345 98t354 -136t150 -382z" />
    <glyph glyph-name="afii10096" unicode="&#x44e;" horiz-adv-x="1687" 
d="M1325 494q0 126 -71 196q-70 70 -166 71t-168 -69t-72 -197q0 -126 72 -198t168 -71t166 72t71 196zM1612 493q0 -245 -156 -381t-356 -136t-345 107q-146 108 -182 304h-163v-387h-277v987h277v-352h174q43 182 185 280q142 99 339 99q196 0 350 -138t154 -383z" />
    <glyph glyph-name="afii10097" unicode="&#x44f;" horiz-adv-x="1136" 
d="M547 520h168v250h-168q-70 0 -111 -37t-41 -91t41 -88t111 -34zM1004 987v-987h-289v299h-137l-211 -299h-306v31l234 323q-82 39 -135 119t-54 172q0 139 98 239t259 103h541z" />
    <glyph glyph-name="afii10071" unicode="&#x451;" 
d="M340 1165q-63 0 -107 38q-43 38 -43 98q0 61 43 99t107 38t107 -38q45 -38 45 -98t-44 -99q-44 -38 -108 -38zM844 1165q-63 0 -107 38q-43 38 -43 98q0 61 43 99t107 38t106 -38q43 -38 43 -98t-43 -99q-43 -38 -106 -38zM596 793q-88 -1 -152 -47t-79 -128h434
q5 90 -55 132t-148 43zM594 1012q264 0 380 -160t58 -418h-670q14 -205 263 -223q208 -10 366 61l33 -209q-186 -88 -383 -88q-252 -5 -409 139q-156 144 -154 390t152 377q151 131 364 131z" />
    <glyph glyph-name="afii10099" unicode="&#x452;" horiz-adv-x="1222" 
d="M819 178v393q-4 99 -54 155t-134 56t-147 -73q-62 -74 -62 -177v-532h-289v1169h-149v193h149v133h289v-133h278v-193h-278v-297q31 70 112 108t184 38t182 -37q200 -94 204 -410v-395q0 -485 -469 -403v215q115 -12 149 28t35 162z" />
    <glyph glyph-name="afii10100" unicode="&#x453;" horiz-adv-x="917" 
d="M367 1139v26l163 326l246 -88v-23l-192 -241h-217zM412 0h-279v987h737v-250h-458v-737z" />
    <glyph glyph-name="afii10101" unicode="&#x454;" horiz-adv-x="1167" 
d="M686 590v-193h-321q16 -82 77 -128q62 -46 144 -46t152 40t93 116h275q-29 -193 -172 -298t-342 -105t-358 136q-159 138 -158 382q0 244 154 380t350 136q196 2 342 -98t178 -285l-273 -2q-25 67 -93 101t-146 35q-80 1 -142 -43t-81 -128h321z" />
    <glyph glyph-name="afii10102" unicode="&#x455;" horiz-adv-x="1046" 
d="M515 1014q189 0 313 -83t116 -233h-270q-2 51 -45 76t-107 25t-109 -28q-44 -28 -44 -69q1 -41 25 -61q24 -19 50 -25t159 -22q134 -16 214 -47q164 -70 160 -250q-2 -113 -69 -187q-123 -136 -376 -137q-448 0 -460 328h286q2 -57 50 -88t112 -29q168 0 170 113
q0 57 -38 72t-103 26q-229 31 -313 72q-144 69 -144 225t117 239t306 83z" />
    <glyph glyph-name="afii10103" unicode="&#x456;" horiz-adv-x="557" 
d="M422 975v-975h-287v975h287zM111 1272q0 80 51 123t119 41q69 -2 117 -45t48 -120t-48 -120t-116 -45t-119 42q-52 44 -52 124z" />
    <glyph glyph-name="afii10104" unicode="&#x457;" horiz-adv-x="555" 
d="M420 987v-987h-285v987h285zM44 1163q-69 0 -116 41t-47 107q0 67 47 107t116 40t116 -41t47 -107t-47 -106q-47 -41 -116 -41zM492 1163q-70 0 -116 41t-46 107q0 67 46 107t116 40t116 -41t45 -107q1 -66 -45 -106q-46 -41 -116 -41z" />
    <glyph glyph-name="afii10105" unicode="&#x458;" horiz-adv-x="552" 
d="M106 1270q0 80 52 124t118 42q68 -2 117 -45t49 -119t-46 -119t-114 -47t-122 40t-54 124zM135 983h283l-2 -1100q0 -260 -125 -351t-365 -48l8 213q119 -16 160 27t41 163v1096z" />
    <glyph glyph-name="afii10106" unicode="&#x459;" horiz-adv-x="1632" 
d="M1147 483h-109v-270h109q76 0 118 37t42 99t-42 98t-118 36zM764 0v735h-211l-35 -360q-20 -258 -118 -334t-357 -41l6 207q113 -11 145 25t44 153l69 602h731v-289h113q190 0 310 -85t120 -263t-122 -264t-310 -86h-385z" />
    <glyph glyph-name="afii10107" unicode="&#x45a;" horiz-adv-x="1595" 
d="M1110 465h-106v-252h106q78 0 120 34t42 95q0 123 -162 123zM1114 0h-385v424h-321v-424h-275v987h275v-317h321v317h275v-307h110q194 0 312 -80t118 -257t-121 -260t-309 -83z" />
    <glyph glyph-name="afii10108" unicode="&#x45b;" horiz-adv-x="1226" 
d="M819 0v571q-4 99 -54 155t-135 56t-147 -68q-61 -69 -61 -171v-543h-289v1169h-145v193h145v133h289v-133h278v-193h-278v-309q74 150 309 150q137 0 224 -66t118 -159t31 -214v-571h-285z" />
    <glyph glyph-name="afii10109" unicode="&#x45c;" horiz-adv-x="1150" 
d="M432 1139v26l162 326l246 -88v-23l-191 -241h-217zM418 621h71q158 0 222 98q63 98 63 270h270q8 -365 -231 -493l279 -465v-29h-291l-232 404q-31 -10 -84 -11h-67v-393h-285v985h285v-366z" />
    <glyph glyph-name="afii10110" unicode="&#x45e;" horiz-adv-x="1144" 
d="M570 1339q148 0 171 123q68 -2 185 -18q-8 -156 -102 -240t-250 -84q-155 0 -247 85t-100 239l183 18q12 -123 160 -123zM14 987h308l260 -655h6l233 655h285v-33l-418 -1050q-88 -208 -176 -303q-161 -174 -434 -43l28 184q121 -49 190 -11t114 165l36 102l-432 956v33z
" />
    <glyph glyph-name="afii10193" unicode="&#x45f;" horiz-adv-x="1212" 
d="M473 0h-340v987h285v-735h373v735h288v-987h-342v-197h-264v197z" />
    <glyph glyph-name="afii10050" unicode="&#x490;" horiz-adv-x="1069" 
d="M1038 1165h-567v-1165h-305v1434h633v204h239v-473z" />
    <glyph glyph-name="afii10098" unicode="&#x491;" horiz-adv-x="917" 
d="M414 0h-281v987h520v189h217v-439h-456v-737z" />
    <glyph glyph-name="Wgrave" unicode="&#x1e80;" horiz-adv-x="1986" 
d="M1114 1559h-233l-183 225v24l263 97l153 -320v-26zM1956 1434v-45l-494 -1401h-182l-285 774h-6l-276 -774h-189l-495 1401v45h321l146 -439l129 -475h6l299 889h125l309 -889h6l121 477l143 437h322z" />
    <glyph glyph-name="wgrave" unicode="&#x1e81;" horiz-adv-x="1574" 
d="M911 1153h-223l-176 215v25l252 92l147 -307v-25zM25 987h305l104 -289l76 -225h4l221 492h109l223 -492h6l170 514h309v-33l-409 -968h-109l-123 241l-123 260l-118 -268l-113 -233h-127l-405 968v33z" />
    <glyph glyph-name="Wacute" unicode="&#x1e82;" horiz-adv-x="1986" 
d="M864 1552v27l154 319l262 -96v-24l-182 -226h-234zM1956 1434v-45l-494 -1401h-182l-285 774h-6l-276 -774h-189l-495 1401v45h321l146 -439l129 -475h6l299 889h125l309 -889h6l121 477l143 437h322z" />
    <glyph glyph-name="wacute" unicode="&#x1e83;" horiz-adv-x="1574" 
d="M647 1145v26l148 310l256 -95v-22l-179 -219h-225zM25 987h305l104 -289l76 -225h4l221 492h109l223 -492h6l170 514h309v-33l-409 -968h-109l-123 241l-123 260l-118 -268l-113 -233h-127l-405 968v33z" />
    <glyph glyph-name="Wdieresis" unicode="&#x1e84;" horiz-adv-x="1986" 
d="M881 1677q0 -67 -47 -107t-116 -40t-116 41t-47 107t47 106q47 41 116 41t116 -41t47 -107zM1262 1530q-70 0 -116 41t-46 107t46 106q46 41 116 41t116 -41t45 -107q1 -67 -45 -107t-116 -40zM1956 1434v-45l-494 -1401h-182l-285 774h-6l-276 -774h-189l-495 1401v45
h321l146 -439l129 -475h6l299 889h125l309 -889h6l121 477l143 437h322z" />
    <glyph glyph-name="wdieresis" unicode="&#x1e85;" horiz-adv-x="1574" 
d="M517 1163q-69 0 -116 41t-47 107q0 67 47 107t116 40t116 -41t47 -107t-47 -106q-47 -41 -116 -41zM1061 1163q-70 0 -116 41t-46 107q0 67 46 107t116 40t116 -41t46 -107t-46 -106q-46 -41 -116 -41zM25 987h305l104 -289l76 -225h4l221 492h109l223 -492h6l170 514
h309v-33l-409 -968h-109l-123 241l-123 260l-118 -268l-113 -233h-127l-405 968v33z" />
    <glyph glyph-name="Ygrave" unicode="&#x1ef2;" horiz-adv-x="1300" 
d="M776 1552h-233l-183 226v24l263 96l153 -319v-27zM1296 1434v-45l-491 -816v-573h-307v573l-494 816v45h330l178 -306l135 -274h10l142 285l172 295h325z" />
    <glyph glyph-name="ygrave" unicode="&#x1ef3;" horiz-adv-x="1144" 
d="M702 1151h-223l-176 215v25l252 92l147 -307v-25zM14 987h301l134 -334l129 -364h6l112 362l119 336h291v-33l-418 -1050q-81 -205 -166 -302q-51 -58 -111 -82q-131 -52 -335 23l30 199q123 -49 191 -11t113 165l36 102l-432 956v33z" />
    <glyph glyph-name="endash" unicode="&#x2013;" horiz-adv-x="1116" 
d="M125 559v246h866v-246h-866z" />
    <glyph glyph-name="emdash" unicode="&#x2014;" horiz-adv-x="1296" 
d="M125 559v246h1046v-246h-1046z" />
    <glyph glyph-name="quoteleft" unicode="&#x2018;" horiz-adv-x="534" 
d="M436 1108q0 -64 -47 -106t-121 -41q-123 0 -159 104q-9 22 -7 58t13 61l82 256h170l-50 -172q53 -14 86 -54q33 -42 33 -106z" />
    <glyph glyph-name="quoteright" unicode="&#x2019;" horiz-adv-x="536" 
d="M102 1298q0 64 48 107t111 43q65 0 109 -29q68 -45 68 -131q-4 -39 -14 -63l-84 -258h-168l49 174q-53 14 -86 54q-33 39 -33 103z" />
    <glyph glyph-name="quotesinglbase" unicode="&#x201a;" horiz-adv-x="565" 
d="M451 125q0 -31 -19 -80t-80 -248h-168l49 174q-119 39 -118 152q0 72 47 115q46 43 112 43t109 -29q68 -46 68 -127z" />
    <glyph glyph-name="quotedblleft" unicode="&#x201c;" horiz-adv-x="980" 
d="M549 1119q0 36 14 65l82 256h170l-49 -174q119 -33 119 -150q0 -72 -47 -115q-46 -43 -112 -43t-110 29q-67 45 -67 132zM100 1117q0 34 13 67l84 256h170l-52 -174q121 -31 121 -150q0 -72 -48 -115t-122 -43q-121 0 -157 107q-9 18 -9 52z" />
    <glyph glyph-name="quotedblright" unicode="&#x201d;" horiz-adv-x="991" 
d="M893 1287q0 -36 -14 -62l-82 -258h-170l49 174q-53 14 -86 54q-33 39 -33 103t47 107q46 43 112 43t109 -29q68 -46 68 -132zM102 1298q0 64 48 107t111 43q65 0 109 -29q68 -45 68 -131q-4 -39 -14 -63l-84 -258h-168l49 174q-53 14 -86 54q-33 39 -33 103z" />
    <glyph glyph-name="quotedblbase" unicode="&#x201e;" horiz-adv-x="1017" 
d="M567 123q0 72 47 115q48 43 112 43t108 -29q68 -45 69 -131q-2 -33 -15 -69t-40 -122t-43 -131h-168l49 172q-119 39 -119 152zM451 128q0 -28 -13 -73q-31 -88 -84 -256h-170l52 172q-121 39 -121 152q0 72 48 115q49 43 113 43t107 -29t59 -78q9 -18 9 -46z" />
    <glyph glyph-name="dagger" unicode="&#x2020;" horiz-adv-x="972" 
d="M72 739v242h284v471h260v-471h285v-242h-285v-917h-260v917h-284z" />
    <glyph glyph-name="daggerdbl" unicode="&#x2021;" horiz-adv-x="1073" 
d="M106 256v238h297v311h-297v235h297v412h261v-412h303v-235h-303v-311h303v-238h-303v-434h-261v434h-297z" />
    <glyph glyph-name="bullet" unicode="&#x2022;" horiz-adv-x="921" 
d="M768 735q0 -127 -88 -205t-218 -79q-130 1 -219 79t-89 204t89 207t219 81t218 -80t88 -207z" />
    <glyph glyph-name="ellipsis" unicode="&#x2026;" horiz-adv-x="1628" 
d="M1345 -31q-71 0 -121 44t-50 114t49 114t121 44t121 -44q48 -44 48 -114t-48 -114t-120 -44zM811 -31q-74 0 -122 44t-48 114t48 114t122 44t122 -44t48 -114t-48 -114t-122 -44zM285 -31q-74 0 -122 44t-48 114t48 114t122 44t122 -44t48 -114t-48 -114t-122 -44z" />
    <glyph glyph-name="perthousand" unicode="&#x2030;" horiz-adv-x="2736" 
d="M2161 329q0 -79 44 -124t95 -45t95 45t44 124t-44 123t-95 44t-95 -44t-44 -123zM2666 330q0 -285 -288 -360q-149 -36 -299 61q-66 41 -106 120t-40 179t40 179q69 137 234 175t314 -55q65 -41 105 -120t40 -179zM301 1099q0 -79 43 -123t95 -44t96 44q43 44 43 123
t-43 124t-95 45t-96 -45q-43 -45 -43 -124zM807 1098q0 -100 -41 -179q-70 -135 -249 -181q-151 -36 -299 61q-65 41 -105 120q-41 79 -41 179t41 179q71 137 234 176q163 40 313 -56q65 -41 106 -120t41 -179zM1307 329q0 -79 43 -124t96 -45t96 45t43 124t-43 123t-96 44
t-96 -44t-43 -123zM1812 330q0 -117 -54 -203t-136 -125t-176 -39t-176 39t-136 125t-55 203q1 118 55 202q105 163 312 162q208 0 312 -163q54 -84 54 -201zM451 0l704 1432h279l-705 -1432h-278z" />
    <glyph glyph-name="guilsinglleft" unicode="&#x2039;" horiz-adv-x="673" 
d="M561 1143l-201 -434l201 -428l-162 -68l-309 496l309 499z" />
    <glyph glyph-name="guilsinglright" unicode="&#x203a;" horiz-adv-x="673" 
d="M313 709l-200 434l161 65l310 -499l-310 -496l-161 68z" />
    <glyph glyph-name="fraction" unicode="&#x2044;" horiz-adv-x="1048" 
d="M-12 -123l782 1616h295l-782 -1616h-295z" />
    <glyph glyph-name="Euro" unicode="&#x20ac;" horiz-adv-x="1341" 
d="M88 782v158h164q62 244 254 376t436 132q162 0 281 -51l-90 -240q-82 35 -197 35t-215 -68t-150 -184h430l-51 -158h-426q-10 -66 -2 -112h389l-55 -162h-299q45 -121 145 -191q100 -69 232 -69t233 55l101 -248q-152 -72 -326 -71q-272 0 -457 136q-184 136 -237 388
h-160v162h137q-4 72 2 112h-139z" />
    <glyph glyph-name="afii61352" unicode="&#x2116;" horiz-adv-x="2748" 
d="M1913 498q-1 -127 69 -198t167 -72t169 71t72 198q0 127 -70 197t-167 70t-169 -70t-71 -196zM2675 498q0 -246 -155 -382t-367 -136q-213 0 -369 136t-156 380t154 381t366 139t370 -135q157 -137 157 -383zM485 0h-305v1440h96l805 -819v813h308v-1438h-93l-811 823
v-819z" />
    <glyph glyph-name="trademark" unicode="&#x2122;" horiz-adv-x="1583" 
d="M1425 1436v-572h-190v244l-131 -139h-8l-131 139v-244h-191v572h96l230 -242l231 242h94zM309 1266h-168v170h527v-170h-168v-402h-191v402z" />
    <glyph glyph-name="arrowleft" unicode="&#x2190;" horiz-adv-x="1564" 
d="M731 115l-616 571v41l618 567l180 -172l-329 -276l827 12v-303l-823 12l325 -278z" />
    <glyph glyph-name="arrowup" unicode="&#x2191;" horiz-adv-x="1480" 
d="M754 1346l571 -617l-174 -182l-279 325l13 -823h-303l12 828l-277 -330l-172 180l568 619h41z" />
    <glyph glyph-name="arrowright" unicode="&#x2192;" horiz-adv-x="1579" 
d="M1438 686l-617 -571l-182 174l326 278l-824 -12v303l828 -12l-330 276l180 172l619 -567v-41z" />
    <glyph glyph-name="arrowdown" unicode="&#x2193;" horiz-adv-x="1445" 
d="M702 63l-571 617l174 182l279 -325l-13 823h303l-12 -828l277 330l172 -180l-568 -619h-41z" />
    <glyph glyph-name="arrowboth" unicode="&#x2194;" horiz-adv-x="2025" 
d="M1911 686l-594 -551l-176 168l315 268h-895l316 -268l-177 -168l-594 551v41l596 549l177 -168l-320 -266h899l-319 266l176 168l596 -549v-41z" />
    <glyph glyph-name="arrowupdn" unicode="&#x2195;" horiz-adv-x="1421" 
d="M700 -88l-546 571l165 170l269 -301v789l-269 -301l-165 170l546 571h41l545 -573l-166 -170l-266 307v-797l266 307l166 -170l-545 -573h-41z" />
    <glyph glyph-name="uni2196" unicode="&#x2196;" horiz-adv-x="1505" 
d="M262 332l-33 837l29 29l840 -35l6 -250l-430 37l594 -577l-213 -213l-576 590l33 -426z" />
    <glyph glyph-name="uni2197" unicode="&#x2197;" horiz-adv-x="1449" 
d="M1200 1169l-33 -837l-249 -8l32 426l-575 -590l-213 213l594 577l-430 -37l6 250l839 35z" />
    <glyph glyph-name="uni2198" unicode="&#x2198;" horiz-adv-x="1505" 
d="M1188 1104l33 -838l-29 -28l-840 34l-6 250l430 -37l-594 578l213 213l576 -590l-33 426z" />
    <glyph glyph-name="uni2199" unicode="&#x2199;" horiz-adv-x="1505" 
d="M285 266l32 838l250 8l-32 -426l575 590l213 -213l-594 -578l430 37l-6 -250l-840 -34z" />
    <glyph glyph-name="minus" unicode="&#x2212;" 
d="M139 600v246h850v-246h-850z" />
    <glyph glyph-name="CR" horiz-adv-x="448" 
 />
    </font>
</defs>
</svg>
